<?xml version="1.0" encoding="UTF-8"?>
<svg version="1.1" xmlns="http://www.w3.org/2000/svg" width="8334" height="8334">
<path d="M0 0 C0.66484909 0.26766678 1.32969818 0.53533356 2.01469421 0.81111145 C4.01187068 1.64069137 5.99099989 2.50406987 7.96875 3.37890625 C9.07996216 3.86471413 9.07996216 3.86471413 10.21362305 4.3603363 C12.64406633 5.42400115 15.07202151 6.49322235 17.5 7.5625 C19.23096804 8.3213098 20.96209106 9.07976615 22.69335938 9.83789062 C27.22751774 11.82458184 31.75957698 13.81601333 36.29101562 15.80889893 C40.63066256 17.71697864 44.97162879 19.62205131 49.3125 21.52734375 C54.42746688 23.77264683 59.54223693 26.01839434 64.65625 28.26586914 C76.26158924 33.36523686 87.8774179 38.44006779 99.5 43.5 C113.70626656 49.68474837 127.89840168 55.90099885 142.08300781 62.13525391 C154.54580241 67.61218767 167.01839057 73.06608721 179.5 78.5 C193.70626656 84.68474837 207.89840168 90.90099885 222.08300781 97.13525391 C234.54580241 102.61218767 247.01839057 108.06608721 259.5 113.5 C273.70626656 119.68474837 287.89840168 125.90099885 302.08300781 132.13525391 C314.54580241 137.61218767 327.01839057 143.06608721 339.5 148.5 C353.70626656 154.68474837 367.89840168 160.90099885 382.08300781 167.13525391 C394.54580241 172.61218767 407.01839057 178.06608721 419.5 183.5 C433.70626656 189.68474837 447.89840168 195.90099885 462.08300781 202.13525391 C474.54580241 207.61218767 487.01839057 213.06608721 499.5 218.5 C513.70626656 224.68474837 527.89840168 230.90099885 542.08300781 237.13525391 C554.54580303 242.61218794 567.01845736 248.06593295 579.5 253.5 C592.80099185 259.29134978 606.09272195 265.10335354 619.375 270.9375 C620.22350525 271.31019012 621.0720105 271.68288025 621.94622803 272.06686401 C628.82564247 275.08877651 635.70445918 278.11204871 642.58325195 281.13537598 C648.59688887 283.77838617 654.61076195 286.42085797 660.625 289.0625 C661.47366638 289.43527069 662.32233276 289.80804138 663.19671631 290.19210815 C676.42683483 296.00231241 689.66897748 301.78451696 702.9175415 307.55252075 C716.31769368 313.38700199 729.70304224 319.25464522 743.08300781 325.13525391 C755.54580241 330.61218767 768.01839057 336.06608721 780.5 341.5 C794.70626656 347.68474837 808.89840168 353.90099885 823.08300781 360.13525391 C835.54580241 365.61218767 848.01839057 371.06608721 860.5 376.5 C874.70626656 382.68474837 888.89840168 388.90099885 903.08300781 395.13525391 C915.54580241 400.61218767 928.01839057 406.06608721 940.5 411.5 C954.70626656 417.68474837 968.89840168 423.90099885 983.08300781 430.13525391 C995.54580241 435.61218767 1008.01839057 441.06608721 1020.5 446.5 C1034.70626656 452.68474837 1048.89840168 458.90099885 1063.08300781 465.13525391 C1075.54580241 470.61218767 1088.01839057 476.06608721 1100.5 481.5 C1114.70626656 487.68474837 1128.89840168 493.90099885 1143.08300781 500.13525391 C1155.54580241 505.61218767 1168.01839057 511.06608721 1180.5 516.5 C1194.70626656 522.68474837 1208.89840168 528.90099885 1223.08300781 535.13525391 C1235.54580241 540.61218767 1248.01839057 546.06608721 1260.5 551.5 C1274.70626656 557.68474837 1288.89840168 563.90099885 1303.08300781 570.13525391 C1315.54580241 575.61218767 1328.01839057 581.06608721 1340.5 586.5 C1354.70626656 592.68474837 1368.89840168 598.90099885 1383.08300781 605.13525391 C1395.54580241 610.61218767 1408.01839057 616.06608721 1420.5 621.5 C1434.70626656 627.68474837 1448.89840168 633.90099885 1463.08300781 640.13525391 C1475.54580241 645.61218767 1488.01839057 651.06608721 1500.5 656.5 C1514.70626656 662.68474837 1528.89840168 668.90099885 1543.08300781 675.13525391 C1555.54580241 680.61218767 1568.01839057 686.06608721 1580.5 691.5 C1594.70626656 697.68474837 1608.89840168 703.90099885 1623.08300781 710.13525391 C1635.54580241 715.61218767 1648.01839057 721.06608721 1660.5 726.5 C1674.70626656 732.68474837 1688.89840168 738.90099885 1703.08300781 745.13525391 C1715.54580303 750.61218794 1728.01845736 756.06593295 1740.5 761.5 C1753.80099185 767.29134978 1767.09272195 773.10335354 1780.375 778.9375 C1781.64775787 779.49653519 1781.64775787 779.49653519 1782.94622803 780.06686401 C1789.82564247 783.08877651 1796.70445918 786.11204871 1803.58325195 789.13537598 C1809.59688887 791.77838617 1815.61076195 794.42085797 1821.625 797.0625 C1822.89799957 797.62165604 1822.89799957 797.62165604 1824.19671631 798.19210815 C1837.42683483 804.00231241 1850.66897748 809.78451696 1863.9175415 815.55252075 C1877.31769368 821.38700199 1890.70304224 827.25464522 1904.08300781 833.13525391 C1916.54580241 838.61218767 1929.01839057 844.06608721 1941.5 849.5 C1955.70626656 855.68474837 1969.89840168 861.90099885 1984.08300781 868.13525391 C1996.54580241 873.61218767 2009.01839057 879.06608721 2021.5 884.5 C2035.70626656 890.68474837 2049.89840168 896.90099885 2064.08300781 903.13525391 C2076.54580241 908.61218767 2089.01839057 914.06608721 2101.5 919.5 C2115.70626656 925.68474837 2129.89840168 931.90099885 2144.08300781 938.13525391 C2156.54580241 943.61218767 2169.01839057 949.06608721 2181.5 954.5 C2195.70626656 960.68474837 2209.89840168 966.90099885 2224.08300781 973.13525391 C2236.54580241 978.61218767 2249.01839057 984.06608721 2261.5 989.5 C2275.70626656 995.68474837 2289.89840168 1001.90099885 2304.08300781 1008.13525391 C2316.54580241 1013.61218767 2329.01839057 1019.06608721 2341.5 1024.5 C2355.70626656 1030.68474837 2369.89840168 1036.90099885 2384.08300781 1043.13525391 C2396.54580241 1048.61218767 2409.01839057 1054.06608721 2421.5 1059.5 C2435.70626656 1065.68474837 2449.89840168 1071.90099885 2464.08300781 1078.13525391 C2476.54580241 1083.61218767 2489.01839057 1089.06608721 2501.5 1094.5 C2515.7015768 1100.68270667 2529.88929749 1106.89630053 2544.06890869 1113.12921143 C2556.82657752 1118.73663426 2569.59676923 1124.31460819 2582.375 1129.875 C2597.61739142 1136.50780689 2612.82568638 1143.21269706 2628 1150 C2627 1152 2627 1152 2624.48762512 1153.01705933 C2622.79956001 1153.55944748 2622.79956001 1153.55944748 2621.07739258 1154.11279297 C2620.45385737 1154.3154329 2619.83032217 1154.51807283 2619.18789196 1154.72685337 C2617.09236104 1155.40584783 2614.99350985 1156.07393403 2612.89453125 1156.7421875 C2611.40481459 1157.22256568 2609.91531708 1157.70362392 2608.42602539 1158.18531799 C2604.39564491 1159.48681484 2600.36233242 1160.77899298 2596.32837296 1162.06934738 C2592.13814565 1163.41117491 2587.95039833 1164.76069546 2583.76245117 1166.10961914 C2578.62123102 1167.76500586 2573.47968892 1169.4193698 2568.33686829 1171.06977844 C2557.79663761 1174.4525757 2547.26370359 1177.856861 2536.73822975 1181.28529358 C2532.45762445 1182.67909758 2528.17596449 1184.0696587 2523.89434338 1185.46033859 C2520.53093592 1186.55302482 2517.16811366 1187.64744483 2513.80654907 1188.74578857 C2510.08792316 1189.96056175 2506.36636761 1191.16619067 2502.64453125 1192.37109375 C2501.55930176 1192.72724258 2500.47407227 1193.08339142 2499.35595703 1193.45033264 C2494.22368543 1195.10433157 2489.37225593 1196.47058086 2484 1197 C2484 1197.66 2484 1198.32 2484 1199 C2485.134375 1199.28875 2486.26875 1199.5775 2487.4375 1199.875 C2488.613125 1200.24625 2489.78875 1200.6175 2491 1201 C2491.33 1201.66 2491.66 1202.32 2492 1203 C2469.37383286 1211.36633218 2446.72418346 1219.66790912 2424.0625 1227.9375 C2423.39561535 1228.18085712 2422.7287307 1228.42421425 2422.04163742 1228.67494583 C2415.84560256 1230.93591585 2409.64944481 1233.19654895 2403.45317078 1235.4568634 C2394.01907629 1238.89829853 2384.58547755 1242.34108872 2375.15234375 1245.78515625 C2374.50556734 1246.02129576 2373.85879093 1246.25743526 2373.19241524 1246.50073051 C2369.93237665 1247.69098677 2366.67234765 1248.8812693 2363.412323 1250.07156372 C2357.51504447 1252.22475325 2351.61768041 1254.37770849 2345.72032356 1256.53068352 C2342.43854561 1257.72877962 2339.15677308 1258.92689055 2335.875 1260.125 C2334.56250003 1260.60416674 2333.25000003 1261.0833334 2331.9375 1261.5625 C2331.2878125 1261.7996875 2330.638125 1262.036875 2329.96875 1262.28125 C2328 1263 2326.03125 1263.71875 2324.0625 1264.4375 C2323.41280998 1264.67468844 2322.76311996 1264.91187689 2322.09374237 1265.15625286 C2320.78126787 1265.63541017 2319.4687933 1266.1145673 2318.15631866 1266.59372425 C2314.87467804 1267.79178264 2311.59303854 1268.98984413 2308.31140137 1270.18791199 C2302.40981712 1272.34247291 2296.50822506 1274.49701242 2290.60659027 1276.6514349 C2287.33147121 1277.84703491 2284.05635884 1279.04265325 2280.78125 1280.23828125 C2280.13253433 1280.47510431 2279.48381866 1280.71192738 2278.81544495 1280.9559269 C2269.53494404 1284.34394984 2260.25482479 1287.73301653 2250.97492599 1291.12268829 C2245.64611481 1293.06910212 2240.31721214 1295.01526544 2234.98828888 1296.96137238 C2233.66324623 1297.44528097 2232.33820858 1297.92920328 2231.01317596 1298.41313934 C2216.6193877 1303.67010753 2202.22400277 1308.92254863 2187.8203125 1314.15234375 C2186.679608 1314.56654068 2185.5389035 1314.98073761 2184.3636322 1315.40748596 C2182.08221669 1316.23584627 2179.80079886 1317.06420019 2177.51937866 1317.89254761 C2176.3992337 1318.2992569 2175.27908875 1318.70596619 2174.125 1319.125 C2173.00896393 1319.53017853 2171.89292786 1319.93535706 2170.74307251 1320.35281372 C2152.00149274 1327.15907431 2133.29060601 1334.04661164 2114.58648682 1340.95504761 C2096.88860285 1347.48937518 2079.15914058 1353.9295089 2061.40130615 1360.2989502 C2045.16485794 1366.12373389 2028.96084695 1372.03180365 2012.77441406 1377.99407959 C1996.53181064 1383.97674149 1980.27113815 1389.9079078 1964 1395.8125 C1945.27032547 1402.60955265 1926.5649035 1409.46938868 1907.875 1416.375 C1887.30820415 1423.97347741 1866.70364748 1431.46035286 1846.07220459 1438.88087082 C1823.82511045 1446.88258067 1801.61405542 1454.97829087 1779.4296875 1463.15234375 C1778.55326599 1463.47478561 1777.67684448 1463.79722748 1776.77386475 1464.12944031 C1772.3532593 1465.75721692 1767.93753836 1467.39678068 1763.52832031 1469.05517578 C1762.65184845 1469.38304581 1761.77537659 1469.71091583 1760.87234497 1470.04872131 C1759.21496109 1470.66905359 1757.55900407 1471.29321653 1755.90475464 1471.92185974 C1752.80929796 1473.07725768 1750.33275575 1474 1747 1474 C1746.94132519 1525.72212614 1746.89340994 1577.44424961 1746.90492249 1629.16641235 C1746.90508971 1629.93192901 1746.90525693 1630.69744566 1746.90542922 1631.48615978 C1746.90913032 1648.12294132 1746.91483194 1664.75972161 1746.92259431 1681.39650174 C1746.9263888 1689.55518721 1746.92974123 1697.71387284 1746.93286133 1705.87255859 C1746.93317934 1706.68444543 1746.93349735 1707.49633226 1746.933825 1708.33282173 C1746.94392528 1734.64795594 1746.92483542 1760.96297057 1746.89060636 1787.27808133 C1746.85558541 1814.32053104 1746.85001681 1841.36283075 1746.88150119 1868.40528871 C1746.8859345 1872.2249308 1746.89003115 1876.04457318 1746.89392281 1879.86421585 C1746.89469915 1880.61597548 1746.89547549 1881.36773511 1746.89627536 1882.14227534 C1746.90790616 1894.24310239 1746.88849405 1906.34369006 1746.85746904 1918.44447463 C1746.8269401 1930.61022213 1746.82912512 1942.77561564 1746.86465739 1954.94135265 C1746.88300408 1961.53304532 1746.88571993 1968.12406646 1746.84977531 1974.71572113 C1746.81718877 1980.75039064 1746.82602304 1986.78352835 1746.86784215 1992.81812783 C1746.87565326 1995.0013334 1746.86824596 1997.18465744 1746.84409653 1999.36774342 C1746.3224245 2012.68245594 1746.3224245 2012.68245594 1752.30829716 2024.04952431 C1753.8541463 2025.3874949 1755.41780593 2026.70521168 1757 2028 C1758.43026249 2029.65841978 1759.83018553 2031.34386555 1761.1875 2033.0625 C1761.92613281 2033.97386719 1762.66476562 2034.88523438 1763.42578125 2035.82421875 C1763.82877441 2036.32228027 1764.23176758 2036.8203418 1764.64697266 2037.33349609 C1767.37455965 2040.69302493 1770.12535394 2044.03352183 1772.875 2047.375 C1773.47046631 2048.09905029 1774.06593262 2048.82310059 1774.67944336 2049.5690918 C1778.94609244 2054.74691766 1783.25726986 2059.88472183 1787.62451172 2064.97802734 C1791.26882859 2069.24636145 1793.24876603 2071.7068342 1793.24857944 2077.3923285 C1793.25436029 2078.51776249 1793.26014113 2079.64319648 1793.26609715 2080.80273452 C1793.26355425 2082.04311598 1793.26101134 2083.28349744 1793.25839138 2084.56146622 C1793.26920687 2086.57710536 1793.28007244 2088.59274471 1793.29261462 2090.60837384 C1793.30552143 2092.79781049 1793.31477477 2094.98724427 1793.32379962 2097.17670009 C1793.45950919 2125.80329817 1794.37348216 2154.35517518 1795.90455627 2182.93939209 C1795.95198136 2183.82728799 1795.99940644 2184.71518388 1796.04826865 2185.62998571 C1796.65422526 2196.94605226 1797.28390941 2208.26074195 1797.9220572 2219.57503345 C1798.50630251 2229.94519775 1799.07321883 2240.31629537 1799.63996878 2250.68742802 C1800.6854024 2269.809873 1801.74373036 2288.93158229 1802.80993843 2308.05287933 C1803.86244969 2326.92939117 1804.90883644 2345.80622701 1805.94743156 2364.68350983 C1806.01252112 2365.86650699 1806.07761068 2367.04950416 1806.14467265 2368.26834972 C1806.47533112 2374.27861486 1806.80588256 2380.28888587 1807.13639211 2386.2991592 C1809.4649502 2428.64033488 1811.80649311 2470.98078312 1814.15600586 2513.32080078 C1816.4352422 2554.39499035 1818.70871801 2595.4694921 1820.97436523 2636.54443359 C1821.04445434 2637.81506655 1821.11454344 2639.08569951 1821.18675645 2640.3948365 C1822.03037478 2655.68880078 1822.87377387 2670.98277715 1823.71709606 2686.27675776 C1825.01088869 2709.73988915 1826.30523054 2733.20299023 1827.59983826 2756.66607666 C1827.66575895 2757.86084195 1827.73167964 2759.05560724 1827.79959792 2760.28657754 C1829.75323181 2795.69433812 1831.71068115 2831.10188601 1833.67165587 2866.50924078 C1833.91950083 2870.98448159 1834.16730619 2875.45972458 1834.41511112 2879.9349676 C1835.45694757 2898.74987777 1836.49888044 2917.5647825 1837.54247348 2936.37959533 C1837.95892989 2943.88817268 1838.37502913 2951.39676977 1838.79084304 2958.90538273 C1839.07373908 2964.01340107 1839.35709807 2969.12139342 1839.64083141 2974.22936531 C1839.81113189 2977.29727348 1839.98098056 2980.36520653 1840.15068955 2983.43314747 C1840.2285498 2984.83900343 1840.30660022 2986.24484887 1840.38485392 2987.65068298 C1840.49033561 2989.54610753 1840.59508288 2991.44157291 1840.69978529 2993.33704066 C1840.75821027 2994.39047008 1840.81663524 2995.4438995 1840.87683067 2996.52925102 C1840.95105713 2998.01821714 1841 2999.5091849 1841 3001 C1745.3 3001 1649.6 3001 1551 3001 C1551 2985.25005308 1551 2985.25005308 1551.35151094 2979.93527645 C1551.43009266 2978.71312318 1551.50867438 2977.49096991 1551.58963737 2976.23178169 C1551.67759052 2974.93582015 1551.76554367 2973.63985861 1551.85616207 2972.30462551 C1551.95004909 2970.87153928 1552.04353101 2969.43842647 1552.13664982 2968.00529012 C1552.39215448 2964.09072031 1552.65332333 2960.17654647 1552.91545503 2956.26241561 C1553.20026205 2951.99412125 1553.47965904 2947.72547214 1553.75973755 2943.45686537 C1554.25092595 2935.98180254 1554.74545572 2928.50696672 1555.24218941 2921.03227043 C1555.9810145 2909.91406976 1556.71449019 2898.79552073 1557.44673017 2887.67688464 C1558.60423529 2870.10198186 1559.7647913 2852.52728226 1560.92738489 2834.95271541 C1562.77703508 2806.99109517 1564.61728255 2779.02886192 1566.45441556 2751.06641676 C1566.84614855 2745.10418982 1567.23797386 2739.14196895 1567.62979788 2733.179748 C1567.70790871 2731.99116488 1567.78601955 2730.80258177 1567.86649738 2729.57798098 C1568.02478853 2727.16933471 1568.18308051 2724.76068849 1568.34137332 2722.35204233 C1568.50025957 2719.93435163 1568.65914323 2717.51666077 1568.81802429 2715.09896973 C1570.69167591 2686.58776966 1572.5670057 2658.07668013 1574.44360352 2629.56567383 C1574.5256891 2628.31850422 1574.60777469 2627.07133461 1574.69234772 2625.78637199 C1577.34562812 2585.47471855 1580.00798819 2545.16366998 1582.67417694 2504.85286846 C1585.42080599 2463.32483492 1588.1555019 2421.79603002 1590.87657053 2380.26631356 C1591.262621 2374.37447458 1591.64881835 2368.48264524 1592.03511238 2362.59082222 C1592.11111823 2361.43152956 1592.18712409 2360.2722369 1592.26543315 2359.07781415 C1593.47889888 2340.57484517 1594.70482101 2322.07272251 1595.93582187 2303.57091273 C1597.1786889 2284.88720257 1598.40853119 2266.20266949 1599.62583714 2247.51727628 C1600.28320387 2237.43230357 1600.94584321 2227.34775558 1601.62514687 2217.26423454 C1602.30763642 2207.12725595 1602.97287025 2196.98926106 1603.62186208 2186.85008285 C1603.79027497 2184.22957758 1603.96129293 2181.60925134 1604.13254414 2178.98893021 C1605.32278006 2160.63643605 1606.14846926 2142.3615559 1606.11638069 2123.96768379 C1606.11750818 2122.34971694 1606.1189344 2120.73175026 1606.12066843 2119.11378394 C1606.12131307 2112.3043046 1606.09262919 2105.5023453 1605.90563665 2098.69518763 C1605.28657672 2073.94085389 1605.28657672 2073.94085389 1614.46887806 2063.57364869 C1615.49745201 2062.5009421 1616.54189752 2061.44312783 1617.60483032 2060.40445673 C1619.49944777 2058.49722762 1621.00683638 2056.38138819 1622.5234375 2054.16796875 C1622.99990723 2053.5042627 1623.47637695 2052.84055664 1623.96728516 2052.15673828 C1624.43183105 2051.50688965 1624.89637695 2050.85704102 1625.375 2050.1875 C1644.62269611 2023.40216156 1644.62269611 2023.40216156 1647.56564313 2020.40610003 C1649.6483128 2016.91247046 1649.4079201 2013.5402386 1649.36914349 2009.58980179 C1649.37260502 2008.72918095 1649.37606655 2007.86856012 1649.37963298 2006.98185986 C1649.38761716 2004.07816791 1649.37407907 2001.17496812 1649.36076355 1998.27130127 C1649.36207096 1996.17657407 1649.36469618 1994.08184735 1649.36853105 1991.98712325 C1649.3752607 1986.21550035 1649.36320927 1980.44404346 1649.34819686 1974.67244172 C1649.33527645 1968.45432164 1649.33962313 1962.23621139 1649.34190369 1956.01808167 C1649.34347895 1945.23960885 1649.33414771 1934.46120303 1649.31719017 1923.68274689 C1649.29944791 1912.3765665 1649.28789412 1901.07040777 1649.28463173 1889.76421356 C1649.28442551 1889.0616107 1649.28421929 1888.35900784 1649.28400682 1887.63511399 C1649.28299184 1884.06704707 1649.28208769 1880.49898014 1649.2812262 1876.93091318 C1649.27492253 1851.64875158 1649.25470367 1826.3666183 1649.22631836 1801.08447266 C1649.19877173 1776.52099763 1649.17751763 1751.95753035 1649.16479492 1727.39404297 C1649.16440034 1726.63708273 1649.16400576 1725.88012248 1649.16359923 1725.10022405 C1649.15964372 1717.49861883 1649.15581627 1709.89701354 1649.15208265 1702.29540821 C1649.14447371 1686.80962963 1649.13600996 1671.32385157 1649.12702942 1655.83807373 C1649.12661755 1655.12604001 1649.12620568 1654.41400628 1649.12578133 1653.68039578 C1649.09817257 1606.12025181 1649.05057385 1558.56012451 1649 1511 C1641.53835359 1513.68585393 1634.07713943 1516.37290432 1626.61640978 1519.06130362 C1623.14847933 1520.31089949 1619.68042509 1521.56014896 1616.21203613 1522.80847168 C1597.27725995 1529.62375514 1578.3739304 1536.51776373 1559.5 1543.5 C1556.96098388 1544.43843295 1554.42183753 1545.37651322 1551.88267517 1546.3145504 C1550.16741843 1546.94827507 1550.16741843 1546.94827507 1548.41751003 1547.59480226 C1532.30900334 1553.54458671 1516.15871732 1559.37587606 1500 1565.1875 C1481.85412058 1571.71446227 1463.72090852 1578.27289923 1445.625 1584.9375 C1444.65282532 1585.29553711 1443.68065063 1585.65357422 1442.67901611 1586.02246094 C1441.7016449 1586.38243164 1440.72427368 1586.74240234 1439.71728516 1587.11328125 C1437.71257679 1587.85159424 1435.70785661 1588.58987514 1433.703125 1589.328125 C1432.69579315 1589.69909302 1431.6884613 1590.07006104 1430.65060425 1590.45227051 C1417.23485751 1595.38984737 1403.80450837 1600.28751175 1390.375 1605.1875 C1389.04030291 1605.67451811 1387.70560646 1606.16153797 1386.37091064 1606.64855957 C1380.9833474 1608.61440428 1375.5957407 1610.58012986 1370.20803833 1612.54559326 C1361.44303036 1615.74319402 1352.67876419 1618.94281988 1343.91508484 1622.14406013 C1337.94345863 1624.32539493 1331.97173307 1626.50645776 1326 1628.6875 C1325.0179232 1629.04619108 1325.0179232 1629.04619108 1324.01600647 1629.41212845 C1309.62129654 1634.66949279 1295.22494428 1639.92220716 1280.8203125 1645.15234375 C1279.68010651 1645.56635941 1278.53990051 1645.98037506 1277.36514282 1646.40693665 C1275.0842308 1647.23511371 1272.80331651 1648.06328453 1270.5223999 1648.89144897 C1269.40125793 1649.29852081 1268.28011597 1649.70559265 1267.125 1650.125 C1266.00530823 1650.53150787 1264.88561646 1650.93801575 1263.73199463 1651.35684204 C1245.25058934 1658.06865047 1226.79926264 1664.85990553 1208.355896 1671.67544556 C1194.45050142 1676.81182767 1180.53170243 1681.9080031 1166.5859375 1686.93359375 C1165.90067364 1687.18055244 1165.21540977 1687.42751114 1164.50938034 1687.68195343 C1157.22045237 1690.3080573 1149.92932037 1692.92795865 1142.63623047 1695.54248047 C1140.22091582 1696.4095165 1137.80571103 1697.27685862 1135.390625 1698.14453125 C1134.2422818 1698.55676941 1133.0939386 1698.96900757 1131.91079712 1699.39373779 C1123.6580638 1702.36918325 1115.45194692 1705.45521873 1107.29107666 1708.67451477 C1106.49989441 1708.98261581 1105.70871216 1709.29071686 1104.89355469 1709.6081543 C1104.20928406 1709.8784697 1103.52501343 1710.1487851 1102.82000732 1710.42729187 C1101 1711 1101 1711 1098 1711 C1098.495 1870.885 1098.495 1870.885 1099 2034 C1106.92 2037.63 1114.84 2041.26 1123 2045 C1148.1599969 2057.57999845 1177.5258472 2073.66617301 1188.875 2101.0625 C1191.90199285 2111.36521662 1191.0643131 2123.14683724 1186.73046875 2132.8828125 C1157.24224546 2186.00155332 1075.49841776 2206.14564875 1020.93739319 2221.76661682 C988.2342548 2231.04502876 955.25905152 2238.99183513 922 2246 C921.05884338 2246.19940186 920.11768677 2246.39880371 919.14801025 2246.60424805 C842.3593877 2262.86077402 764.62746499 2274.34896192 184 2319 C182.04573456 2319.05301885 180.09147019 2319.10607675 178.13720703 2319.15917969 C166.17534675 2319.47984122 154.2129035 2319.72927254 142.24865723 2319.94140625 C138.78388247 2320.00389796 135.31919192 2320.07020317 131.85449219 2320.13671875 C46.93292009 2321.73880724 -38.08066208 2321.77068183 -123 2320 C-123.75781769 2319.98437012 -124.51563538 2319.96874023 -125.29641724 2319.95263672 C-207.90356192 2318.24795431 -290.50383867 2315.31337915 -1094 2190 C-1095.59134766 2189.27731934 -1095.59134766 2189.27731934 -1097.21484375 2188.54003906 C-1116.16629351 2179.88118702 -1133.87651189 2170.26898399 -1150 2157 C-1150.81855469 2156.34644531 -1151.63710937 2155.69289062 -1152.48046875 2155.01953125 C-1162.38699724 2146.74988182 -1171.58621416 2134.98616782 -1174 2122 C-1175.05690538 2105.86186781 -1170.76201659 2093.70243331 -1160.25 2081.3125 C-1155.58723984 2076.34603515 -1150.40184933 2072.1337109 -1145 2068 C-1143.49373047 2066.82824219 -1143.49373047 2066.82824219 -1141.95703125 2065.6328125 C-1128.74650014 2055.63141498 -1113.76875688 2048.38437844 -1099 2041 C-1099 1923.19 -1099 1805.38 -1099 1684 C-1110.88 1679.38 -1122.76 1674.76 -1135 1670 C-1144.68100292 1666.17152106 -1154.36129142 1662.3420896 -1164.03323364 1658.49090576 C-1168.40691014 1656.74979934 -1172.78138596 1655.01070717 -1177.15600586 1653.27197266 C-1178.26729874 1652.83027111 -1178.26729874 1652.83027111 -1179.40104198 1652.3796463 C-1180.89370777 1651.78636417 -1182.3863756 1651.19308719 -1183.87904549 1650.59981537 C-1186.09002116 1649.72098395 -1188.3009317 1648.84198886 -1190.51182556 1647.96295166 C-1203.19083745 1642.92214349 -1215.87511995 1637.89470986 -1228.5625 1632.875 C-1230.00477966 1632.30430283 -1230.00477966 1632.30430283 -1231.47619629 1631.72207642 C-1237.9837908 1629.14719079 -1244.49178312 1626.5733121 -1251 1624 C-1251.8956366 1623.64587036 -1252.79127319 1623.29174072 -1253.71405029 1622.92687988 C-1261.74069443 1619.75328192 -1269.76749721 1616.58008529 -1277.79443359 1613.40722656 C-1297.17214172 1605.74740173 -1316.54575612 1598.07723888 -1335.91943359 1590.40722656 C-1344.94781854 1586.83293661 -1353.97643518 1583.25923199 -1363.0050354 1579.68548584 C-1368.00336652 1577.70701479 -1373.00168249 1575.72850545 -1378 1573.75 C-1379.99999993 1572.95833315 -1381.99999993 1572.16666648 -1384 1571.375 C-1388 1569.79166667 -1392 1568.20833333 -1396 1566.625 C-1396.98997482 1566.23313507 -1397.97994965 1565.84127014 -1398.99992371 1565.43753052 C-1401.00017831 1564.64576286 -1403.00043262 1563.85399447 -1405.00068665 1563.06222534 C-1409.99678884 1561.08459785 -1414.99289605 1559.10698305 -1419.98901367 1557.12939453 C-1429.03553819 1553.54853907 -1438.08202475 1549.96758785 -1447.12832642 1546.38616943 C-1467.25052469 1538.41982702 -1487.37347617 1530.45540866 -1507.5 1522.5 C-1528.64266241 1514.14294236 -1549.78131818 1505.77577744 -1570.91943359 1497.40722656 C-1576.95272031 1495.01868019 -1582.98610902 1492.63039153 -1589.01953125 1490.2421875 C-1590.00852417 1489.85071533 -1590.99751709 1489.45924316 -1592.01647949 1489.0559082 C-1595.01098459 1487.87060107 -1598.00549186 1486.68529943 -1601 1485.5 C-1612.04287019 1481.12896239 -1623.08573669 1476.75791555 -1634.12832642 1472.38616943 C-1654.25052469 1464.41982702 -1674.37347617 1456.45540866 -1694.5 1448.5 C-1715.64266241 1440.14294236 -1736.78131818 1431.77577744 -1757.91943359 1423.40722656 C-1763.95272031 1421.01868019 -1769.98610902 1418.63039153 -1776.01953125 1416.2421875 C-1777.00852417 1415.85071533 -1777.99751709 1415.45924316 -1779.01647949 1415.0559082 C-1782.01098459 1413.87060107 -1785.00549186 1412.68529943 -1788 1411.5 C-1799.04287019 1407.12896239 -1810.08573669 1402.75791555 -1821.12832642 1398.38616943 C-1841.25052469 1390.41982702 -1861.37347617 1382.45540866 -1881.5 1374.5 C-1902.64266241 1366.14294236 -1923.78131818 1357.77577744 -1944.91943359 1349.40722656 C-1953.94781854 1345.83293661 -1962.97643518 1342.25923199 -1972.0050354 1338.68548584 C-1977.00336652 1336.70701479 -1982.00168249 1334.72850545 -1987 1332.75 C-1988.99999993 1331.95833315 -1990.99999993 1331.16666648 -1993 1330.375 C-1997 1328.79166667 -2001 1327.20833333 -2005 1325.625 C-2005.98997482 1325.23313507 -2006.97994965 1324.84127014 -2007.99992371 1324.43753052 C-2010.00017831 1323.64576286 -2012.00043262 1322.85399447 -2014.00068665 1322.06222534 C-2018.99678884 1320.08459785 -2023.99289605 1318.10698305 -2028.98901367 1316.12939453 C-2038.03553819 1312.54853907 -2047.08202475 1308.96758785 -2056.12832642 1305.38616943 C-2076.25052469 1297.41982702 -2096.37347617 1289.45540866 -2116.5 1281.5 C-2137.64266241 1273.14294236 -2158.78131818 1264.77577744 -2179.91943359 1256.40722656 C-2185.95272031 1254.01868019 -2191.98610902 1251.63039153 -2198.01953125 1249.2421875 C-2199.00852417 1248.85071533 -2199.99751709 1248.45924316 -2201.01647949 1248.0559082 C-2204.01098459 1246.87060107 -2207.00549186 1245.68529943 -2210 1244.5 C-2221.04287019 1240.12896239 -2232.08573669 1235.75791555 -2243.12832642 1231.38616943 C-2263.25052469 1223.41982702 -2283.37347617 1215.45540866 -2303.5 1207.5 C-2324.64266241 1199.14294236 -2345.78131818 1190.77577744 -2366.91943359 1182.40722656 C-2372.95272031 1180.01868019 -2378.98611011 1177.6303943 -2385.01953125 1175.2421875 C-2386.00965714 1174.85026215 -2386.99978302 1174.45833679 -2388.01991272 1174.05453491 C-2392.99085801 1172.08688014 -2397.96183482 1170.11930505 -2402.93286133 1168.15185547 C-2412.21168764 1164.47935497 -2421.49023029 1160.80614296 -2430.76776123 1157.13037109 C-2435.09620123 1155.41548806 -2439.42480384 1153.70101572 -2443.75341797 1151.98657227 C-2445.79451439 1151.17801968 -2447.83553326 1150.3692713 -2449.87646484 1149.56030273 C-2450.83891113 1149.1788208 -2451.80135742 1148.79733887 -2452.79296875 1148.40429688 C-2453.73392395 1148.03127441 -2454.67487915 1147.65825195 -2455.64434814 1147.27392578 C-2458.3678428 1146.19634455 -2461.09353333 1145.12446118 -2463.81933594 1144.05273438 C-2467.25741723 1142.69848009 -2470.67998908 1141.31241688 -2474.09472656 1139.90039062 C-2475.3081926 1139.40699188 -2475.3081926 1139.40699188 -2476.5461731 1138.90362549 C-2478.04332859 1138.2946111 -2479.53638261 1137.67535374 -2481.02389526 1137.04315186 C-2484.51675773 1135.6366631 -2487.2784593 1134.8577458 -2491.06176758 1135.0012207 C-2495.57744301 1134.99982101 -2498.08620475 1133.98809932 -2502.12890625 1132.02734375 C-2503.1171917 1131.55595474 -2503.1171917 1131.55595474 -2504.1254425 1131.07504272 C-2506.27846992 1130.04371012 -2508.42017059 1128.99085006 -2510.5625 1127.9375 C-2512.07826316 1127.20652376 -2513.59471383 1126.47697158 -2515.11181641 1125.7487793 C-2518.99994482 1123.87809195 -2522.87913777 1121.98965499 -2526.75579834 1120.09533691 C-2530.21481909 1118.40707815 -2533.67959279 1116.73075861 -2537.14453125 1115.0546875 C-2541.01154988 1113.18356503 -2544.8781076 1111.31155442 -2548.74145508 1109.43286133 C-2558.14528103 1104.86477223 -2567.61382986 1100.44905564 -2577.11108398 1096.078125 C-2588.66755428 1090.73667177 -2600.10677328 1085.15840341 -2611.54003906 1079.55908203 C-2612.26556473 1079.20445389 -2612.99109039 1078.84982574 -2613.73860168 1078.48445129 C-2615.09722137 1077.82014273 -2616.45509351 1077.15430215 -2617.8120575 1076.48661804 C-2621.16124374 1074.84921296 -2624.51691731 1073.33034121 -2628 1072 C-2628 1071.34 -2628 1070.68 -2628 1070 C-2627.083396 1069.62939453 -2626.16679199 1069.25878906 -2625.22241211 1068.87695312 C-2602.41595669 1059.6533666 -2579.63969447 1050.35843318 -2556.88525391 1041.00732422 C-2548.86218357 1037.71033907 -2540.83738123 1034.41757442 -2532.8125 1031.125 C-2532.01636292 1030.79831329 -2531.22022583 1030.47162659 -2530.39996338 1030.13504028 C-2516.33748239 1024.36491353 -2502.26945045 1018.608404 -2488.20010376 1012.8550415 C-2475.29666085 1007.57831246 -2462.39648616 1002.29370805 -2449.5 997 C-2434.73747083 990.94032463 -2419.96930011 984.89454036 -2405.19873047 978.85449219 C-2392.29574612 973.57794437 -2379.39603005 968.29352083 -2366.5 963 C-2352.67072019 957.32340182 -2338.83679123 951.65826385 -2325 946 C-2311.05943042 940.29913517 -2297.12115875 934.59273658 -2283.1875 928.875 C-2282.39032562 928.54788025 -2281.59315125 928.2207605 -2280.77182007 927.88372803 C-2275.18107965 925.58947781 -2269.59051777 923.29479269 -2264 921 C-2257.60429245 918.37469345 -2251.20850051 915.74959275 -2244.8125 913.125 C-2244.01572845 912.79804138 -2243.21895691 912.47108276 -2242.39804077 912.13421631 C-2228.33619687 906.3643736 -2214.26880509 900.6081401 -2200.20010376 894.8550415 C-2187.29666085 889.57831246 -2174.39648616 884.29370805 -2161.5 879 C-2146.73747083 872.94032463 -2131.96930011 866.89454036 -2117.19873047 860.85449219 C-2104.29574612 855.57794437 -2091.39603005 850.29352083 -2078.5 845 C-2063.73747083 838.94032463 -2048.96930011 832.89454036 -2034.19873047 826.85449219 C-2021.29574612 821.57794437 -2008.39603005 816.29352083 -1995.5 811 C-1981.67072019 805.32340182 -1967.83679123 799.65826385 -1954 794 C-1940.05943042 788.29913517 -1926.12115875 782.59273658 -1912.1875 776.875 C-1911.39032562 776.54788025 -1910.59315125 776.2207605 -1909.77182007 775.88372803 C-1904.18107965 773.58947781 -1898.59051777 771.29479269 -1893 769 C-1886.60429245 766.37469345 -1880.20850051 763.74959275 -1873.8125 761.125 C-1873.01572845 760.79804138 -1872.21895691 760.47108276 -1871.39804077 760.13421631 C-1857.33619687 754.3643736 -1843.26880509 748.6081401 -1829.20010376 742.8550415 C-1816.29666085 737.57831246 -1803.39648616 732.29370805 -1790.5 727 C-1775.73747083 720.94032463 -1760.96930011 714.89454036 -1746.19873047 708.85449219 C-1733.29574612 703.57794437 -1720.39603005 698.29352083 -1707.5 693 C-1693.67072019 687.32340182 -1679.83679123 681.65826385 -1666 676 C-1652.05943042 670.29913517 -1638.12115875 664.59273658 -1624.1875 658.875 C-1623.39032562 658.54788025 -1622.59315125 658.2207605 -1621.77182007 657.88372803 C-1616.18107965 655.58947781 -1610.59051777 653.29479269 -1605 651 C-1598.60429245 648.37469345 -1592.20850051 645.74959275 -1585.8125 643.125 C-1585.01572845 642.79804138 -1584.21895691 642.47108276 -1583.39804077 642.13421631 C-1569.33619687 636.3643736 -1555.26880509 630.6081401 -1541.20010376 624.8550415 C-1528.29666085 619.57831246 -1515.39648616 614.29370805 -1502.5 609 C-1487.73747083 602.94032463 -1472.96930011 596.89454036 -1458.19873047 590.85449219 C-1445.29574612 585.57794437 -1432.39603005 580.29352083 -1419.5 575 C-1405.67072019 569.32340182 -1391.83679123 563.65826385 -1378 558 C-1364.05943042 552.29913517 -1350.12115875 546.59273658 -1336.1875 540.875 C-1335.39032562 540.54788025 -1334.59315125 540.2207605 -1333.77182007 539.88372803 C-1328.18107965 537.58947781 -1322.59051777 535.29479269 -1317 533 C-1310.60429245 530.37469345 -1304.20850051 527.74959275 -1297.8125 525.125 C-1297.01572845 524.79804138 -1296.21895691 524.47108276 -1295.39804077 524.13421631 C-1281.33619687 518.3643736 -1267.26880509 512.6081401 -1253.20010376 506.8550415 C-1240.29666085 501.57831246 -1227.39648616 496.29370805 -1214.5 491 C-1199.73747083 484.94032463 -1184.96930011 478.89454036 -1170.19873047 472.85449219 C-1157.29574612 467.57794437 -1144.39603005 462.29352083 -1131.5 457 C-1116.73747083 450.94032463 -1101.96930011 444.89454036 -1087.19873047 438.85449219 C-1074.29574612 433.57794437 -1061.39603005 428.29352083 -1048.5 423 C-1034.67072019 417.32340182 -1020.83679123 411.65826385 -1007 406 C-993.05943042 400.29913517 -979.12115875 394.59273658 -965.1875 388.875 C-964.39032562 388.54788025 -963.59315125 388.2207605 -962.77182007 387.88372803 C-957.18107965 385.58947781 -951.59051777 383.29479269 -946 381 C-939.60429245 378.37469345 -933.20850051 375.74959275 -926.8125 373.125 C-926.01572845 372.79804138 -925.21895691 372.47108276 -924.39804077 372.13421631 C-910.33619687 366.3643736 -896.26880509 360.6081401 -882.20010376 354.8550415 C-869.29666085 349.57831246 -856.39648616 344.29370805 -843.5 339 C-828.73747083 332.94032463 -813.96930011 326.89454036 -799.19873047 320.85449219 C-786.29574612 315.57794437 -773.39603005 310.29352083 -760.5 305 C-746.67072019 299.32340182 -732.83679123 293.65826385 -719 288 C-705.05943042 282.29913517 -691.12115875 276.59273658 -677.1875 270.875 C-676.39032562 270.54788025 -675.59315125 270.2207605 -674.77182007 269.88372803 C-669.18107965 267.58947781 -663.59051777 265.29479269 -658 263 C-651.60429245 260.37469345 -645.20850051 257.74959275 -638.8125 255.125 C-638.01572845 254.79804138 -637.21895691 254.47108276 -636.39804077 254.13421631 C-622.33619687 248.3643736 -608.26880509 242.6081401 -594.20010376 236.8550415 C-581.29666085 231.57831246 -568.39648616 226.29370805 -555.5 221 C-540.73747083 214.94032463 -525.96930011 208.89454036 -511.19873047 202.85449219 C-498.29574612 197.57794437 -485.39603005 192.29352083 -472.5 187 C-457.73747083 180.94032463 -442.96930011 174.89454036 -428.19873047 168.85449219 C-415.29574612 163.57794437 -402.39603005 158.29352083 -389.5 153 C-375.67072019 147.32340182 -361.83679123 141.65826385 -348 136 C-334.05943042 130.29913517 -320.12115875 124.59273658 -306.1875 118.875 C-304.99173843 118.38432037 -304.99173843 118.38432037 -303.77182007 117.88372803 C-298.18107965 115.58947781 -292.59051777 113.29479269 -287 111 C-280.60429245 108.37469345 -274.20850051 105.74959275 -267.8125 103.125 C-266.61734268 102.63456207 -266.61734268 102.63456207 -265.39804077 102.13421631 C-251.33619687 96.3643736 -237.26880509 90.6081401 -223.20010376 84.8550415 C-210.29666085 79.57831246 -197.39648616 74.29370805 -184.5 69 C-169.73747083 62.94032463 -154.96930011 56.89454036 -140.19873047 50.85449219 C-126.50325203 45.25386175 -112.81172361 39.64370211 -99.12384033 34.02453613 C-89.68675074 30.15053835 -80.24749194 26.28192415 -70.8046875 22.421875 C-69.86065567 22.03569504 -68.91662384 21.64951508 -67.94398499 21.25163269 C-63.22352909 19.32099343 -58.50154282 17.39429032 -53.77612305 15.47583008 C-45.50181071 12.11111116 -37.25720328 8.7073096 -29.08984375 5.08984375 C-27.11031739 4.22498354 -25.13000721 3.36194376 -23.1494751 2.49938965 C-21.37776475 1.71634513 -19.61991071 0.9021769 -17.86279297 0.08691406 C-16.28522217 -0.59999512 -16.28522217 -0.59999512 -14.67578125 -1.30078125 C-13.78802002 -1.70466064 -12.90025879 -2.10854004 -11.9855957 -2.5246582 C-7.49559112 -3.23951951 -4.13759033 -1.68606579 0 0 Z M-502 1927 C-502 1927.33 -502 1927.66 -502 1928 C-493.45175534 1928.15873088 -493.45175534 1928.15873088 -485 1927 C-485 1926.67 -485 1926.34 -485 1926 C-490.78591511 1925.89522488 -496.29309366 1926.00749455 -502 1927 Z M-509 1928 C-509 1928.33 -509 1928.66 -509 1929 C-507.35 1929 -505.7 1929 -504 1929 C-504 1928.67 -504 1928.34 -504 1928 C-505.65 1928 -507.3 1928 -509 1928 Z " fill="#121010" transform="translate(3928,2712)"/>
<path d="M0 0 C0.66484909 0.26766678 1.32969818 0.53533356 2.01469421 0.81111145 C4.01187068 1.64069137 5.99099989 2.50406987 7.96875 3.37890625 C9.07996216 3.86471413 9.07996216 3.86471413 10.21362305 4.3603363 C12.64406633 5.42400115 15.07202151 6.49322235 17.5 7.5625 C19.23096804 8.3213098 20.96209106 9.07976615 22.69335938 9.83789062 C27.22751774 11.82458184 31.75957698 13.81601333 36.29101562 15.80889893 C40.63066256 17.71697864 44.97162879 19.62205131 49.3125 21.52734375 C54.42746688 23.77264683 59.54223693 26.01839434 64.65625 28.26586914 C76.26158924 33.36523686 87.8774179 38.44006779 99.5 43.5 C113.70626656 49.68474837 127.89840168 55.90099885 142.08300781 62.13525391 C154.54580241 67.61218767 167.01839057 73.06608721 179.5 78.5 C193.70626656 84.68474837 207.89840168 90.90099885 222.08300781 97.13525391 C234.54580241 102.61218767 247.01839057 108.06608721 259.5 113.5 C273.70626656 119.68474837 287.89840168 125.90099885 302.08300781 132.13525391 C314.54580241 137.61218767 327.01839057 143.06608721 339.5 148.5 C353.70626656 154.68474837 367.89840168 160.90099885 382.08300781 167.13525391 C394.54580241 172.61218767 407.01839057 178.06608721 419.5 183.5 C433.70626656 189.68474837 447.89840168 195.90099885 462.08300781 202.13525391 C474.54580241 207.61218767 487.01839057 213.06608721 499.5 218.5 C513.70626656 224.68474837 527.89840168 230.90099885 542.08300781 237.13525391 C554.54580303 242.61218794 567.01845736 248.06593295 579.5 253.5 C592.80099185 259.29134978 606.09272195 265.10335354 619.375 270.9375 C620.22350525 271.31019012 621.0720105 271.68288025 621.94622803 272.06686401 C628.82564247 275.08877651 635.70445918 278.11204871 642.58325195 281.13537598 C648.59688887 283.77838617 654.61076195 286.42085797 660.625 289.0625 C661.47366638 289.43527069 662.32233276 289.80804138 663.19671631 290.19210815 C676.42683483 296.00231241 689.66897748 301.78451696 702.9175415 307.55252075 C716.31769368 313.38700199 729.70304224 319.25464522 743.08300781 325.13525391 C755.54580241 330.61218767 768.01839057 336.06608721 780.5 341.5 C794.70626656 347.68474837 808.89840168 353.90099885 823.08300781 360.13525391 C835.54580241 365.61218767 848.01839057 371.06608721 860.5 376.5 C874.70626656 382.68474837 888.89840168 388.90099885 903.08300781 395.13525391 C915.54580241 400.61218767 928.01839057 406.06608721 940.5 411.5 C954.70626656 417.68474837 968.89840168 423.90099885 983.08300781 430.13525391 C995.54580241 435.61218767 1008.01839057 441.06608721 1020.5 446.5 C1034.70626656 452.68474837 1048.89840168 458.90099885 1063.08300781 465.13525391 C1075.54580241 470.61218767 1088.01839057 476.06608721 1100.5 481.5 C1114.70626656 487.68474837 1128.89840168 493.90099885 1143.08300781 500.13525391 C1155.54580241 505.61218767 1168.01839057 511.06608721 1180.5 516.5 C1194.70626656 522.68474837 1208.89840168 528.90099885 1223.08300781 535.13525391 C1235.54580241 540.61218767 1248.01839057 546.06608721 1260.5 551.5 C1274.70626656 557.68474837 1288.89840168 563.90099885 1303.08300781 570.13525391 C1315.54580241 575.61218767 1328.01839057 581.06608721 1340.5 586.5 C1354.70626656 592.68474837 1368.89840168 598.90099885 1383.08300781 605.13525391 C1395.54580241 610.61218767 1408.01839057 616.06608721 1420.5 621.5 C1434.70626656 627.68474837 1448.89840168 633.90099885 1463.08300781 640.13525391 C1475.54580241 645.61218767 1488.01839057 651.06608721 1500.5 656.5 C1514.70626656 662.68474837 1528.89840168 668.90099885 1543.08300781 675.13525391 C1555.54580241 680.61218767 1568.01839057 686.06608721 1580.5 691.5 C1594.70626656 697.68474837 1608.89840168 703.90099885 1623.08300781 710.13525391 C1635.54580241 715.61218767 1648.01839057 721.06608721 1660.5 726.5 C1674.70626656 732.68474837 1688.89840168 738.90099885 1703.08300781 745.13525391 C1715.54580303 750.61218794 1728.01845736 756.06593295 1740.5 761.5 C1753.80099185 767.29134978 1767.09272195 773.10335354 1780.375 778.9375 C1781.64775787 779.49653519 1781.64775787 779.49653519 1782.94622803 780.06686401 C1789.82564247 783.08877651 1796.70445918 786.11204871 1803.58325195 789.13537598 C1809.59688887 791.77838617 1815.61076195 794.42085797 1821.625 797.0625 C1822.89799957 797.62165604 1822.89799957 797.62165604 1824.19671631 798.19210815 C1837.42683483 804.00231241 1850.66897748 809.78451696 1863.9175415 815.55252075 C1877.31769368 821.38700199 1890.70304224 827.25464522 1904.08300781 833.13525391 C1916.54580241 838.61218767 1929.01839057 844.06608721 1941.5 849.5 C1955.70626656 855.68474837 1969.89840168 861.90099885 1984.08300781 868.13525391 C1996.54580241 873.61218767 2009.01839057 879.06608721 2021.5 884.5 C2035.70626656 890.68474837 2049.89840168 896.90099885 2064.08300781 903.13525391 C2076.54580241 908.61218767 2089.01839057 914.06608721 2101.5 919.5 C2115.70626656 925.68474837 2129.89840168 931.90099885 2144.08300781 938.13525391 C2156.54580241 943.61218767 2169.01839057 949.06608721 2181.5 954.5 C2195.70626656 960.68474837 2209.89840168 966.90099885 2224.08300781 973.13525391 C2236.54580241 978.61218767 2249.01839057 984.06608721 2261.5 989.5 C2275.70626656 995.68474837 2289.89840168 1001.90099885 2304.08300781 1008.13525391 C2316.54580241 1013.61218767 2329.01839057 1019.06608721 2341.5 1024.5 C2355.70626656 1030.68474837 2369.89840168 1036.90099885 2384.08300781 1043.13525391 C2396.54580241 1048.61218767 2409.01839057 1054.06608721 2421.5 1059.5 C2435.70626656 1065.68474837 2449.89840168 1071.90099885 2464.08300781 1078.13525391 C2476.54580241 1083.61218767 2489.01839057 1089.06608721 2501.5 1094.5 C2515.7015768 1100.68270667 2529.88929749 1106.89630053 2544.06890869 1113.12921143 C2556.82657752 1118.73663426 2569.59676923 1124.31460819 2582.375 1129.875 C2597.61739142 1136.50780689 2612.82568638 1143.21269706 2628 1150 C2627 1152 2627 1152 2624.48762512 1153.01705933 C2622.79956001 1153.55944748 2622.79956001 1153.55944748 2621.07739258 1154.11279297 C2620.45385737 1154.31543573 2619.83032217 1154.5180785 2619.18789196 1154.72686195 C2617.09236372 1155.40586254 2614.993514 1156.07394921 2612.89453125 1156.7421875 C2611.40481559 1157.22252292 2609.91531806 1157.70353532 2608.42602539 1158.18518066 C2604.39562117 1159.48658061 2600.36229166 1160.77868705 2596.32837296 1162.0691452 C2592.13800942 1163.4113531 2587.95034561 1164.76192845 2583.76245117 1166.11181641 C2576.89374704 1168.32479763 2570.02353442 1170.53303367 2563.15234375 1172.73828125 C2554.34395743 1175.56572408 2545.5400172 1178.40675357 2536.73822975 1181.25466537 C2533.14748844 1182.41647629 2529.55652445 1183.57759851 2525.96557617 1184.73876953 C2525.28206935 1184.95978899 2524.59856253 1185.18080845 2523.89434338 1185.40852547 C2521.86707169 1186.06404619 2519.83978597 1186.71952347 2517.8125 1187.375 C2517.14863407 1187.58967674 2516.48476814 1187.80435349 2515.80078506 1188.02553558 C2511.41595274 1189.44332127 2507.03040588 1190.8588786 2502.64453125 1192.2734375 C2501.55930176 1192.62442505 2500.47407227 1192.9754126 2499.35595703 1193.33703613 C2484.77294432 1198.03566903 2477.39961858 1199.20153053 2463.1875 1192.4375 C2460.57486959 1191.22468582 2457.95706691 1190.02317689 2455.33984375 1188.8203125 C2454.31958603 1188.34876488 2454.31958603 1188.34876488 2453.27871704 1187.86769104 C2446.37846222 1184.6873693 2439.40102939 1181.69808707 2432.40792847 1178.7288208 C2418.77020342 1172.93783592 2405.18503153 1167.03294622 2391.625 1161.0625 C2378.70509814 1155.37536783 2365.7733937 1149.71812589 2352.8125 1144.125 C2339.05366774 1138.18687184 2325.30427244 1132.22751198 2311.5625 1126.25 C2310.59825104 1125.83059143 2309.63400208 1125.41118286 2308.64053345 1124.97906494 C2303.72526826 1122.84107677 2298.81011393 1120.70283391 2293.89501953 1118.56445312 C2285.21931439 1114.79011741 2276.54259358 1111.01811786 2267.86593628 1107.24597168 C2263.07724802 1105.16407963 2258.28862748 1103.08203183 2253.5 1101 C2251.58333366 1100.16666592 2249.66666699 1099.33333259 2247.75 1098.5 C2057.99951744 1015.99979019 2057.99951744 1015.99979019 117.37510681 172.25004578 C115.45808475 171.41655837 113.54106205 170.58307245 111.6240387 169.74958801 C106.83780422 167.66862423 102.05158092 165.58763474 97.26538086 163.5065918 C88.57576373 159.72837077 79.88610872 155.95023733 71.19592285 152.17332458 C69.2358075 151.32132992 67.27576507 150.46916744 65.3157959 149.61683655 C60.49246752 147.51947628 55.6681059 145.42457089 50.84130859 143.33520508 C42.37444498 139.66677436 33.91875805 135.97944776 25.50737 132.18519592 C21.9035997 130.5604099 18.29410878 128.94855681 14.68429565 127.33724976 C12.99847489 126.57990388 11.31569006 125.81575789 9.63626099 125.04434204 C7.32987025 123.9851547 5.01420239 122.94943806 2.6953125 121.91796875 C2.02971817 121.60451508 1.36412384 121.2910614 0.67835999 120.96810913 C-5.60492604 118.22426159 -10.7314387 119.04400922 -16.89428711 121.35668945 C-18.27621053 121.93214684 -19.65372271 122.51827806 -21.02734375 123.11328125 C-22.17425186 123.59506332 -22.17425186 123.59506332 -23.34432983 124.08657837 C-25.00486827 124.78531702 -26.66352328 125.48854509 -28.32046509 126.19577026 C-31.93916143 127.7399246 -35.56721395 129.26151683 -39.19480896 130.78462219 C-41.13142993 131.59790455 -43.06758881 132.41228801 -45.00331116 133.22770691 C-56.07048595 137.88563055 -67.19081699 142.41167874 -78.3125 146.9375 C-81.43141014 148.20831541 -84.55013606 149.47958216 -87.66885376 150.75086975 C-89.74022913 151.59519482 -91.81166043 152.43938272 -93.88314819 153.28343201 C-104.36362729 157.55411319 -114.83850381 161.83844899 -125.3125 166.125 C-127.12605508 166.86711312 -128.93961302 167.60921925 -130.75317383 168.35131836 C-134.36233779 169.82820688 -137.9714628 171.30519055 -141.58056641 172.78222656 C-149.8021453 176.14683923 -158.02426658 179.51012606 -166.24633789 182.87353516 C-168.99432151 183.99767705 -171.74228187 185.12187579 -174.49023438 186.24609375 C-182.78606709 189.63999024 -191.08199114 193.03366273 -199.37832642 196.42633057 C-217.75601784 203.94164295 -236.13205254 211.4608996 -254.5 219 C-273.80003952 226.92167638 -293.10914944 234.82110849 -312.41943359 242.71777344 C-317.95297616 244.98068794 -323.48629119 247.24415841 -329.01953125 249.5078125 C-329.92602417 249.87865967 -330.83251709 250.24950684 -331.76647949 250.6315918 C-334.51099022 251.75438501 -337.25549609 252.87719012 -340 254 C-350.12589726 258.14262754 -360.25180314 262.28523348 -370.37832642 266.42633057 C-388.75601784 273.94164295 -407.13205254 281.4608996 -425.5 289 C-444.80003952 296.92167638 -464.10914944 304.82110849 -483.41943359 312.71777344 C-488.95297616 314.98068794 -494.48629119 317.24415841 -500.01953125 319.5078125 C-500.92602417 319.87865967 -501.83251709 320.24950684 -502.76647949 320.6315918 C-505.51099022 321.75438501 -508.25549609 322.87719012 -511 324 C-521.12589726 328.14262754 -531.25180314 332.28523348 -541.37832642 336.42633057 C-559.75601784 343.94164295 -578.13205254 351.4608996 -596.5 359 C-615.80003952 366.92167638 -635.10914944 374.82110849 -654.41943359 382.71777344 C-662.69829996 386.10337436 -670.97664953 389.49023855 -679.2550354 392.87701416 C-683.83666884 394.75139515 -688.41833614 396.62569336 -693 398.5 C-694.8333335 399.2499996 -696.66666683 399.9999996 -698.5 400.75 C-702.16666667 402.25 -705.83333333 403.75 -709.5 405.25 C-710.86121223 405.80685989 -710.86121223 405.80685989 -712.24992371 406.37496948 C-714.0835107 407.12507279 -715.91709835 407.87517452 -717.75068665 408.62527466 C-722.33014422 410.49868104 -726.90959057 412.37211483 -731.48901367 414.24560547 C-739.78525714 417.6396553 -748.08158552 421.03349685 -756.37832642 424.42633057 C-774.75601784 431.94164295 -793.13205254 439.4608996 -811.5 447 C-830.80003952 454.92167638 -850.10914944 462.82110849 -869.41943359 470.71777344 C-874.95297616 472.98068794 -880.48629119 475.24415841 -886.01953125 477.5078125 C-887.37927063 478.06408325 -887.37927063 478.06408325 -888.76647949 478.6315918 C-891.51099022 479.75438501 -894.25549609 480.87719012 -897 482 C-907.12589726 486.14262754 -917.25180314 490.28523348 -927.37832642 494.42633057 C-945.75601784 501.94164295 -964.13205254 509.4608996 -982.5 517 C-1001.80003952 524.92167638 -1021.10914944 532.82110849 -1040.41943359 540.71777344 C-1045.95297616 542.98068794 -1051.48629119 545.24415841 -1057.01953125 547.5078125 C-1057.92602417 547.87865967 -1058.83251709 548.24950684 -1059.76647949 548.6315918 C-1062.51099022 549.75438501 -1065.25549609 550.87719012 -1068 552 C-1078.12589726 556.14262754 -1088.25180314 560.28523348 -1098.37832642 564.42633057 C-1116.75601784 571.94164295 -1135.13205254 579.4608996 -1153.5 587 C-1172.80003952 594.92167638 -1192.10914944 602.82110849 -1211.41943359 610.71777344 C-1219.69829996 614.10337436 -1227.97664953 617.49023855 -1236.2550354 620.87701416 C-1240.83666884 622.75139515 -1245.41833614 624.62569336 -1250 626.5 C-1251.8333335 627.2499996 -1253.66666683 627.9999996 -1255.5 628.75 C-1259.16666667 630.25 -1262.83333333 631.75 -1266.5 633.25 C-1267.86121223 633.80685989 -1267.86121223 633.80685989 -1269.24992371 634.37496948 C-1271.0835107 635.12507279 -1272.91709835 635.87517452 -1274.75068665 636.62527466 C-1279.33014422 638.49868104 -1283.90959057 640.37211483 -1288.48901367 642.24560547 C-1296.78525714 645.6396553 -1305.08158552 649.03349685 -1313.37832642 652.42633057 C-1331.75601784 659.94164295 -1350.13205254 667.4608996 -1368.5 675 C-1387.80003952 682.92167638 -1407.10914944 690.82110849 -1426.41943359 698.71777344 C-1431.95297616 700.98068794 -1437.48629119 703.24415841 -1443.01953125 705.5078125 C-1443.92602417 705.87865967 -1444.83251709 706.24950684 -1445.76647949 706.6315918 C-1448.51099022 707.75438501 -1451.25549609 708.87719012 -1454 710 C-1464.12589726 714.14262754 -1474.25180314 718.28523348 -1484.37832642 722.42633057 C-1502.75601784 729.94164295 -1521.13205254 737.4608996 -1539.5 745 C-1558.80003952 752.92167638 -1578.10914944 760.82110849 -1597.41943359 768.71777344 C-1602.95297616 770.98068794 -1608.48629119 773.24415841 -1614.01953125 775.5078125 C-1614.92602417 775.87865967 -1615.83251709 776.24950684 -1616.76647949 776.6315918 C-1619.51099022 777.75438501 -1622.25549609 778.87719012 -1625 780 C-1635.12589726 784.14262754 -1645.25180314 788.28523348 -1655.37832642 792.42633057 C-1673.75601784 799.94164295 -1692.13205254 807.4608996 -1710.5 815 C-1729.80003952 822.92167638 -1749.10914944 830.82110849 -1768.41943359 838.71777344 C-1776.69829996 842.10337436 -1784.97664953 845.49023855 -1793.2550354 848.87701416 C-1797.83666884 850.75139515 -1802.41833614 852.62569336 -1807 854.5 C-1808.8333335 855.2499996 -1810.66666683 855.9999996 -1812.5 856.75 C-1816.16666667 858.25 -1819.83333333 859.75 -1823.5 861.25 C-1824.40747482 861.62123993 -1825.31494965 861.99247986 -1826.24992371 862.37496948 C-1828.0835107 863.12507279 -1829.91709835 863.87517452 -1831.75068665 864.62527466 C-1836.33014422 866.49868104 -1840.90959057 868.37211483 -1845.48901367 870.24560547 C-1853.78525714 873.6396553 -1862.08158552 877.03349685 -1870.37832642 880.42633057 C-1888.75601784 887.94164295 -1907.13205254 895.4608996 -1925.5 903 C-1944.80003952 910.92167638 -1964.10914944 918.82110849 -1983.41943359 926.71777344 C-1988.95297616 928.98068794 -1994.48629119 931.24415841 -2000.01953125 933.5078125 C-2000.92602417 933.87865967 -2001.83251709 934.24950684 -2002.76647949 934.6315918 C-2005.51099022 935.75438501 -2008.25549609 936.87719012 -2011 938 C-2021.12589726 942.14262754 -2031.25180314 946.28523348 -2041.37832642 950.42633057 C-2059.75601784 957.94164295 -2078.13205254 965.4608996 -2096.5 973 C-2115.80003952 980.92167638 -2135.10914944 988.82110849 -2154.41943359 996.71777344 C-2159.95297616 998.98068794 -2165.48629119 1001.24415841 -2171.01953125 1003.5078125 C-2171.92602417 1003.87865967 -2172.83251709 1004.24950684 -2173.76647949 1004.6315918 C-2176.51099022 1005.75438501 -2179.25549609 1006.87719012 -2182 1008 C-2192.12589726 1012.14262754 -2202.25180314 1016.28523348 -2212.37832642 1020.42633057 C-2230.75601784 1027.94164295 -2249.13205254 1035.4608996 -2267.5 1043 C-2286.80003952 1050.92167638 -2306.10914944 1058.82110849 -2325.41943359 1066.71777344 C-2333.69829996 1070.10337436 -2341.97664953 1073.49023855 -2350.2550354 1076.87701416 C-2354.83666884 1078.75139515 -2359.41833614 1080.62569336 -2364 1082.5 C-2365.8333335 1083.2499996 -2367.66666683 1083.9999996 -2369.5 1084.75 C-2373.16666667 1086.25 -2376.83333333 1087.75 -2380.5 1089.25 C-2381.40740936 1089.62121475 -2382.31481873 1089.9924295 -2383.24972534 1090.37489319 C-2385.08396902 1091.1252619 -2386.91821788 1091.87561793 -2388.75247192 1092.6259613 C-2393.32191954 1094.49521629 -2397.89127822 1096.36468808 -2402.46044922 1098.23461914 C-2410.87587441 1101.67836958 -2419.29206597 1105.12020095 -2427.71139526 1108.55439758 C-2431.57081579 1110.12872137 -2435.42985485 1111.70397837 -2439.28875732 1113.27957153 C-2441.16727166 1114.04649647 -2443.04589171 1114.81316254 -2444.92462158 1115.57955933 C-2453.74831195 1119.18030232 -2462.5669837 1122.78819674 -2471.328125 1126.5390625 C-2472.54097168 1127.05799072 -2473.75381836 1127.57691895 -2475.00341797 1128.11157227 C-2477.16156396 1129.04030953 -2479.31710935 1129.97512814 -2481.46923828 1130.91772461 C-2482.85731689 1131.51725952 -2482.85731689 1131.51725952 -2484.2734375 1132.12890625 C-2485.05122559 1132.46994385 -2485.82901367 1132.81098145 -2486.63037109 1133.16235352 C-2491.75920759 1134.9753597 -2495.01988031 1135.42544825 -2500.07215881 1133.05680847 C-2500.68643234 1132.74931168 -2501.30070587 1132.44181488 -2501.93359375 1132.125 C-2502.59528061 1131.80932571 -2503.25696747 1131.49365143 -2503.93870544 1131.16841125 C-2506.11238845 1130.12694654 -2508.27460785 1129.06366937 -2510.4375 1128 C-2511.96237033 1127.26445141 -2513.48793478 1126.53034023 -2515.01416016 1125.79760742 C-2518.93012523 1123.91311464 -2522.83707517 1122.01071273 -2526.74151611 1120.10247803 C-2530.20783418 1118.41039622 -2533.67997831 1116.73040908 -2537.15234375 1115.05078125 C-2541.01659675 1113.18104468 -2544.88040164 1111.31044723 -2548.7409668 1109.43310547 C-2558.14495083 1104.8649247 -2567.61366433 1100.44913182 -2577.11108398 1096.078125 C-2588.66755428 1090.73667177 -2600.10677328 1085.15840341 -2611.54003906 1079.55908203 C-2612.26556473 1079.20445389 -2612.99109039 1078.84982574 -2613.73860168 1078.48445129 C-2615.09722137 1077.82014273 -2616.45509351 1077.15430215 -2617.8120575 1076.48661804 C-2621.16124374 1074.84921296 -2624.51691731 1073.33034121 -2628 1072 C-2628 1071.34 -2628 1070.68 -2628 1070 C-2627.083396 1069.62939453 -2626.16679199 1069.25878906 -2625.22241211 1068.87695312 C-2602.41595669 1059.6533666 -2579.63969447 1050.35843318 -2556.88525391 1041.00732422 C-2548.86218357 1037.71033907 -2540.83738123 1034.41757442 -2532.8125 1031.125 C-2532.01636292 1030.79831329 -2531.22022583 1030.47162659 -2530.39996338 1030.13504028 C-2516.33748239 1024.36491353 -2502.26945045 1018.608404 -2488.20010376 1012.8550415 C-2475.29666085 1007.57831246 -2462.39648616 1002.29370805 -2449.5 997 C-2434.73747083 990.94032463 -2419.96930011 984.89454036 -2405.19873047 978.85449219 C-2392.29574612 973.57794437 -2379.39603005 968.29352083 -2366.5 963 C-2352.67072019 957.32340182 -2338.83679123 951.65826385 -2325 946 C-2311.05943042 940.29913517 -2297.12115875 934.59273658 -2283.1875 928.875 C-2282.39032562 928.54788025 -2281.59315125 928.2207605 -2280.77182007 927.88372803 C-2275.18107965 925.58947781 -2269.59051777 923.29479269 -2264 921 C-2257.60429245 918.37469345 -2251.20850051 915.74959275 -2244.8125 913.125 C-2244.01572845 912.79804138 -2243.21895691 912.47108276 -2242.39804077 912.13421631 C-2228.33619687 906.3643736 -2214.26880509 900.6081401 -2200.20010376 894.8550415 C-2187.29666085 889.57831246 -2174.39648616 884.29370805 -2161.5 879 C-2146.73747083 872.94032463 -2131.96930011 866.89454036 -2117.19873047 860.85449219 C-2104.29574612 855.57794437 -2091.39603005 850.29352083 -2078.5 845 C-2063.73747083 838.94032463 -2048.96930011 832.89454036 -2034.19873047 826.85449219 C-2021.29574612 821.57794437 -2008.39603005 816.29352083 -1995.5 811 C-1981.67072019 805.32340182 -1967.83679123 799.65826385 -1954 794 C-1940.05943042 788.29913517 -1926.12115875 782.59273658 -1912.1875 776.875 C-1911.39032562 776.54788025 -1910.59315125 776.2207605 -1909.77182007 775.88372803 C-1904.18107965 773.58947781 -1898.59051777 771.29479269 -1893 769 C-1886.60429245 766.37469345 -1880.20850051 763.74959275 -1873.8125 761.125 C-1873.01572845 760.79804138 -1872.21895691 760.47108276 -1871.39804077 760.13421631 C-1857.33619687 754.3643736 -1843.26880509 748.6081401 -1829.20010376 742.8550415 C-1816.29666085 737.57831246 -1803.39648616 732.29370805 -1790.5 727 C-1775.73747083 720.94032463 -1760.96930011 714.89454036 -1746.19873047 708.85449219 C-1733.29574612 703.57794437 -1720.39603005 698.29352083 -1707.5 693 C-1693.67072019 687.32340182 -1679.83679123 681.65826385 -1666 676 C-1652.05943042 670.29913517 -1638.12115875 664.59273658 -1624.1875 658.875 C-1623.39032562 658.54788025 -1622.59315125 658.2207605 -1621.77182007 657.88372803 C-1616.18107965 655.58947781 -1610.59051777 653.29479269 -1605 651 C-1598.60429245 648.37469345 -1592.20850051 645.74959275 -1585.8125 643.125 C-1585.01572845 642.79804138 -1584.21895691 642.47108276 -1583.39804077 642.13421631 C-1569.33619687 636.3643736 -1555.26880509 630.6081401 -1541.20010376 624.8550415 C-1528.29666085 619.57831246 -1515.39648616 614.29370805 -1502.5 609 C-1487.73747083 602.94032463 -1472.96930011 596.89454036 -1458.19873047 590.85449219 C-1445.29574612 585.57794437 -1432.39603005 580.29352083 -1419.5 575 C-1405.67072019 569.32340182 -1391.83679123 563.65826385 -1378 558 C-1364.05943042 552.29913517 -1350.12115875 546.59273658 -1336.1875 540.875 C-1335.39032562 540.54788025 -1334.59315125 540.2207605 -1333.77182007 539.88372803 C-1328.18107965 537.58947781 -1322.59051777 535.29479269 -1317 533 C-1310.60429245 530.37469345 -1304.20850051 527.74959275 -1297.8125 525.125 C-1297.01572845 524.79804138 -1296.21895691 524.47108276 -1295.39804077 524.13421631 C-1281.33619687 518.3643736 -1267.26880509 512.6081401 -1253.20010376 506.8550415 C-1240.29666085 501.57831246 -1227.39648616 496.29370805 -1214.5 491 C-1199.73747083 484.94032463 -1184.96930011 478.89454036 -1170.19873047 472.85449219 C-1157.29574612 467.57794437 -1144.39603005 462.29352083 -1131.5 457 C-1116.73747083 450.94032463 -1101.96930011 444.89454036 -1087.19873047 438.85449219 C-1074.29574612 433.57794437 -1061.39603005 428.29352083 -1048.5 423 C-1034.67072019 417.32340182 -1020.83679123 411.65826385 -1007 406 C-993.05943042 400.29913517 -979.12115875 394.59273658 -965.1875 388.875 C-964.39032562 388.54788025 -963.59315125 388.2207605 -962.77182007 387.88372803 C-957.18107965 385.58947781 -951.59051777 383.29479269 -946 381 C-939.60429245 378.37469345 -933.20850051 375.74959275 -926.8125 373.125 C-926.01572845 372.79804138 -925.21895691 372.47108276 -924.39804077 372.13421631 C-910.33619687 366.3643736 -896.26880509 360.6081401 -882.20010376 354.8550415 C-869.29666085 349.57831246 -856.39648616 344.29370805 -843.5 339 C-828.73747083 332.94032463 -813.96930011 326.89454036 -799.19873047 320.85449219 C-786.29574612 315.57794437 -773.39603005 310.29352083 -760.5 305 C-746.67072019 299.32340182 -732.83679123 293.65826385 -719 288 C-705.05943042 282.29913517 -691.12115875 276.59273658 -677.1875 270.875 C-676.39032562 270.54788025 -675.59315125 270.2207605 -674.77182007 269.88372803 C-669.18107965 267.58947781 -663.59051777 265.29479269 -658 263 C-651.60429245 260.37469345 -645.20850051 257.74959275 -638.8125 255.125 C-638.01572845 254.79804138 -637.21895691 254.47108276 -636.39804077 254.13421631 C-622.33619687 248.3643736 -608.26880509 242.6081401 -594.20010376 236.8550415 C-581.29666085 231.57831246 -568.39648616 226.29370805 -555.5 221 C-540.73747083 214.94032463 -525.96930011 208.89454036 -511.19873047 202.85449219 C-498.29574612 197.57794437 -485.39603005 192.29352083 -472.5 187 C-457.73747083 180.94032463 -442.96930011 174.89454036 -428.19873047 168.85449219 C-415.29574612 163.57794437 -402.39603005 158.29352083 -389.5 153 C-375.67072019 147.32340182 -361.83679123 141.65826385 -348 136 C-334.05943042 130.29913517 -320.12115875 124.59273658 -306.1875 118.875 C-304.99173843 118.38432037 -304.99173843 118.38432037 -303.77182007 117.88372803 C-298.18107965 115.58947781 -292.59051777 113.29479269 -287 111 C-280.60429245 108.37469345 -274.20850051 105.74959275 -267.8125 103.125 C-266.61734268 102.63456207 -266.61734268 102.63456207 -265.39804077 102.13421631 C-251.33619687 96.3643736 -237.26880509 90.6081401 -223.20010376 84.8550415 C-210.29666085 79.57831246 -197.39648616 74.29370805 -184.5 69 C-169.73747083 62.94032463 -154.96930011 56.89454036 -140.19873047 50.85449219 C-126.50325203 45.25386175 -112.81172361 39.64370211 -99.12384033 34.02453613 C-89.68675074 30.15053835 -80.24749194 26.28192415 -70.8046875 22.421875 C-69.86065567 22.03569504 -68.91662384 21.64951508 -67.94398499 21.25163269 C-63.22352909 19.32099343 -58.50154282 17.39429032 -53.77612305 15.47583008 C-45.50181071 12.11111116 -37.25720328 8.7073096 -29.08984375 5.08984375 C-27.11031739 4.22498354 -25.13000721 3.36194376 -23.1494751 2.49938965 C-21.37776475 1.71634513 -19.61991071 0.9021769 -17.86279297 0.08691406 C-16.28522217 -0.59999512 -16.28522217 -0.59999512 -14.67578125 -1.30078125 C-13.78802002 -1.70466064 -12.90025879 -2.10854004 -11.9855957 -2.5246582 C-7.49559112 -3.23951951 -4.13759033 -1.68606579 0 0 Z " fill="#272A29" transform="translate(3928,2712)"/>
<path d="M0 0 C-0.00130151 1.14517432 -0.00260303 2.29034864 -0.00394398 3.47022521 C-0.06071323 53.94027407 -0.10633209 104.41031789 -0.09507751 154.88040161 C-0.09482668 156.02656198 -0.09482668 156.02656198 -0.09457078 157.19587711 C-0.09086968 173.80202545 -0.08516806 190.40817254 -0.07740569 207.01431947 C-0.0736112 215.15798367 -0.07025877 223.30164802 -0.06713867 231.4453125 C-0.06682066 232.25570449 -0.06650265 233.06609648 -0.066175 233.90104581 C-0.05607474 260.1676783 -0.07516453 286.43419099 -0.10939364 312.70079998 C-0.14441467 339.69343153 -0.14998311 366.68591279 -0.11849881 393.67855261 C-0.1140655 397.4911674 -0.10996885 401.30378248 -0.10607719 405.11639786 C-0.10530085 405.86677434 -0.10452451 406.61715082 -0.10372464 407.39026598 C-0.09209389 419.46877721 -0.11150585 431.54704861 -0.14253096 443.62551729 C-0.17306007 455.76886086 -0.17087468 467.9118498 -0.13534261 480.05518286 C-0.11699605 486.63472437 -0.11427972 493.2135931 -0.15022469 499.79309654 C-0.18281167 505.8166645 -0.17397647 511.83869783 -0.13215785 517.86219563 C-0.12434686 520.04136354 -0.13175368 522.22065015 -0.15590347 524.39969824 C-0.67485819 537.69668843 -0.67485819 537.69668843 5.30829716 549.04715157 C6.85419408 550.3858454 8.41785433 551.70434822 10 553 C11.43021581 554.65846003 12.83013507 556.3439054 14.1875 558.0625 C14.92613281 558.97386719 15.66476562 559.88523438 16.42578125 560.82421875 C17.030271 561.57131104 17.030271 561.57131104 17.64697266 562.33349609 C20.37455965 565.69302493 23.12535394 569.03352183 25.875 572.375 C26.47046631 573.09905029 27.06593262 573.82310059 27.67944336 574.5690918 C31.94609244 579.74691766 36.25726986 584.88472183 40.62451172 589.97802734 C44.26882859 594.24636145 46.24876603 596.7068342 46.24857944 602.3923285 C46.25725071 604.08047948 46.25725071 604.08047948 46.26609715 605.80273452 C46.26355425 607.04311598 46.26101134 608.28349744 46.25839138 609.56146622 C46.26920687 611.57710536 46.28007244 613.59274471 46.29261462 615.60837384 C46.30552143 617.79781049 46.31477477 619.98724427 46.32379962 622.17670009 C46.45950919 650.80329817 47.37348216 679.35517518 48.90455627 707.93939209 C48.95198136 708.82728799 48.99940644 709.71518388 49.04826865 710.62998571 C49.65422526 721.94605226 50.28390941 733.26074195 50.9220572 744.57503345 C51.50630251 754.94519775 52.07321883 765.31629537 52.63996878 775.68742802 C53.6854024 794.809873 54.74373036 813.93158229 55.80993843 833.05287933 C56.86244969 851.92939117 57.90883644 870.80622701 58.94743156 889.68350983 C59.01252112 890.86650699 59.07761068 892.04950416 59.14467265 893.26834972 C59.47533112 899.27861486 59.80588256 905.28888587 60.13639211 911.2991592 C62.4649502 953.64033488 64.80649311 995.98078312 67.15600586 1038.32080078 C69.4352422 1079.39499035 71.70871801 1120.4694921 73.97436523 1161.54443359 C74.04445434 1162.81506655 74.11454344 1164.08569951 74.18675645 1165.3948365 C75.03037478 1180.68880078 75.87377387 1195.98277715 76.71709606 1211.27675776 C78.01088869 1234.73988915 79.30523054 1258.20299023 80.59983826 1281.66607666 C80.66575895 1282.86084195 80.73167964 1284.05560724 80.79959792 1285.28657754 C82.75323181 1320.69433812 84.71068115 1356.10188601 86.67165587 1391.50924078 C86.91950083 1395.98448159 87.16730619 1400.45972458 87.41511112 1404.9349676 C88.45694757 1423.74987777 89.49888044 1442.5647825 90.54247348 1461.37959533 C90.95892989 1468.88817268 91.37502913 1476.39676977 91.79084304 1483.90538273 C92.07373908 1489.01340107 92.35709807 1494.12139342 92.64083141 1499.22936531 C92.81113189 1502.29727348 92.98098056 1505.36520653 93.15068955 1508.43314747 C93.2285498 1509.83900343 93.30660022 1511.24484887 93.38485392 1512.65068298 C93.49033561 1514.54610753 93.59508288 1516.44157291 93.69978529 1518.33704066 C93.75821027 1519.39047008 93.81663524 1520.4438995 93.87683067 1521.52925102 C93.95105713 1523.01821714 94 1524.5091849 94 1526 C-1.7 1526 -97.4 1526 -196 1526 C-196 1510.25005308 -196 1510.25005308 -195.64848906 1504.93527645 C-195.56990734 1503.71312318 -195.49132562 1502.49096991 -195.41036263 1501.23178169 C-195.2784329 1499.28783938 -195.2784329 1499.28783938 -195.14383793 1497.30462551 C-195.04995091 1495.87153928 -194.95646899 1494.43842647 -194.86335018 1493.00529012 C-194.60784552 1489.09072031 -194.34667667 1485.17654647 -194.08454497 1481.26241561 C-193.79973795 1476.99412125 -193.52034096 1472.72547214 -193.24026245 1468.45686537 C-192.74907405 1460.98180254 -192.25454428 1453.50696672 -191.75781059 1446.03227043 C-191.0189855 1434.91406976 -190.28550981 1423.79552073 -189.55326983 1412.67688464 C-188.39576471 1395.10198186 -187.2352087 1377.52728226 -186.07261511 1359.95271541 C-184.22296492 1331.99109517 -182.38271745 1304.02886192 -180.54558444 1276.06641676 C-180.15385145 1270.10418982 -179.76202614 1264.14196895 -179.37020212 1258.179748 C-179.29209129 1256.99116488 -179.21398045 1255.80258177 -179.13350262 1254.57798098 C-178.97521147 1252.16933471 -178.81691949 1249.76068849 -178.65862668 1247.35204233 C-178.49974043 1244.93435163 -178.34085677 1242.51666077 -178.18197571 1240.09896973 C-176.30832409 1211.58776966 -174.4329943 1183.07668013 -172.55639648 1154.56567383 C-172.4743109 1153.31850422 -172.39222531 1152.07133461 -172.30765228 1150.78637199 C-169.65437188 1110.47471855 -166.99201181 1070.16366998 -164.32582306 1029.85286846 C-161.57919401 988.32483492 -158.8444981 946.79603002 -156.12342947 905.26631356 C-155.737379 899.37447458 -155.35118165 893.48264524 -154.96488762 887.59082222 C-154.85087884 885.85188323 -154.85087884 885.85188323 -154.73456685 884.07781415 C-153.52110112 865.57484517 -152.29517899 847.07272251 -151.06417813 828.57091273 C-149.8213111 809.88720257 -148.59146881 791.20266949 -147.37416286 772.51727628 C-146.71679613 762.43230357 -146.05415679 752.34775558 -145.37485313 742.26423454 C-144.69236358 732.12725595 -144.02712975 721.98926106 -143.37813792 711.85008285 C-143.20972503 709.22957758 -143.03870707 706.60925134 -142.86745586 703.98893021 C-141.67721994 685.63643605 -140.85153074 667.3615559 -140.88361931 648.96768379 C-140.88249182 647.34971694 -140.8810656 645.73175026 -140.87933157 644.11378394 C-140.87868693 637.3043046 -140.90737081 630.5023453 -141.09436335 623.69518763 C-141.71342328 598.94085389 -141.71342328 598.94085389 -132.53112194 588.57364869 C-131.50254799 587.5009421 -130.45810248 586.44312783 -129.39516968 585.40445673 C-127.50055223 583.49722762 -125.99316362 581.38138819 -124.4765625 579.16796875 C-124.00009277 578.5042627 -123.52362305 577.84055664 -123.03271484 577.15673828 C-122.56816895 576.50688965 -122.10362305 575.85704102 -121.625 575.1875 C-102.3773454 548.40221933 -102.3773454 548.40221933 -99.43533295 545.40707612 C-97.35032681 541.91048776 -97.58438335 538.52904687 -97.61523914 534.57418442 C-97.60751428 533.2807206 -97.60751428 533.2807206 -97.59963337 531.96112621 C-97.58594294 529.05172012 -97.59371925 526.14276039 -97.60127258 523.2333374 C-97.59583701 521.1344829 -97.58908708 519.03563145 -97.58113068 516.93678498 C-97.56303483 511.15378748 -97.56367106 505.37091791 -97.56726015 499.58789873 C-97.56788204 493.35748735 -97.55128229 487.12711963 -97.53674316 480.89672852 C-97.51391271 470.09699425 -97.50196025 459.29730507 -97.49761391 448.49755096 C-97.49300935 437.16902837 -97.48223265 425.84053944 -97.46318626 414.51203156 C-97.46200614 413.80804235 -97.46082601 413.10405314 -97.45961012 412.37873093 C-97.45358482 408.8036238 -97.447449 405.22851686 -97.44127061 401.65340999 C-97.39769149 376.32135775 -97.36799105 350.98930631 -97.34643555 325.65722656 C-97.32546107 301.0452351 -97.29821063 276.43326368 -97.26245117 251.82128906 C-97.26135169 251.06283476 -97.26025222 250.30438047 -97.25911942 249.5229427 C-97.24807123 241.90633385 -97.23689531 234.28972519 -97.2256258 226.67311666 C-97.20267078 211.15677364 -97.18056834 195.64042945 -97.15898132 180.12408447 C-97.15749089 179.05392565 -97.15749089 179.05392565 -97.15597036 177.96214746 C-97.08969951 130.30811447 -97.0433661 82.65405877 -97 35 C-95.72951078 34.35714913 -94.45813496 33.71605029 -93.18639088 33.0756855 C-92.47848968 32.71848462 -91.77058849 32.36128374 -91.04123574 31.9932586 C-88.47962014 30.74678487 -85.87685291 29.73849203 -83.19604492 28.77685547 C-82.12259323 28.38899872 -81.04914154 28.00114197 -79.94316101 27.60153198 C-78.80047256 27.1941983 -77.65778412 26.78686462 -76.48046875 26.3671875 C-74.62596885 25.69893298 -72.77146933 25.03067738 -70.91698933 24.36236763 C-68.32503035 23.42970362 -65.73144879 22.50159696 -63.13787842 21.57342529 C-58.06616266 19.75725745 -52.99768504 17.9320628 -47.92886734 16.10782623 C-46.04622904 15.43085985 -44.16299211 14.75555901 -42.27975464 14.08026123 C-35.91409232 11.79266029 -29.56335847 9.47380564 -23.23291016 7.09082031 C-22.60779321 6.85619898 -21.98267626 6.62157764 -21.33861637 6.37984657 C-18.36125759 5.2621251 -15.38662787 4.13808384 -12.4160614 3.00241089 C-11.36650772 2.6073233 -10.31695404 2.21223572 -9.2355957 1.80517578 C-8.3175264 1.45544708 -7.39945709 1.10571838 -6.4535675 0.74539185 C-4 0 -4 0 0 0 Z " fill="#EBA61C" transform="translate(5675,4187)"/>
<path d="M0 0 C-0.00130151 1.14517432 -0.00260303 2.29034864 -0.00394398 3.47022521 C-0.06071323 53.94027407 -0.10633209 104.41031789 -0.09507751 154.88040161 C-0.09482668 156.02656198 -0.09482668 156.02656198 -0.09457078 157.19587711 C-0.09086968 173.80202545 -0.08516806 190.40817254 -0.07740569 207.01431947 C-0.0736112 215.15798367 -0.07025877 223.30164802 -0.06713867 231.4453125 C-0.06682066 232.25570449 -0.06650265 233.06609648 -0.066175 233.90104581 C-0.05607474 260.1676783 -0.07516453 286.43419099 -0.10939364 312.70079998 C-0.14441467 339.69343153 -0.14998311 366.68591279 -0.11849881 393.67855261 C-0.1140655 397.4911674 -0.10996885 401.30378248 -0.10607719 405.11639786 C-0.10530085 405.86677434 -0.10452451 406.61715082 -0.10372464 407.39026598 C-0.09209389 419.46877721 -0.11150585 431.54704861 -0.14253096 443.62551729 C-0.17306007 455.76886086 -0.17087468 467.9118498 -0.13534261 480.05518286 C-0.11699605 486.63472437 -0.11427972 493.2135931 -0.15022469 499.79309654 C-0.18281167 505.8166645 -0.17397647 511.83869783 -0.13215785 517.86219563 C-0.12434686 520.04136354 -0.13175368 522.22065015 -0.15590347 524.39969824 C-0.67485819 537.69668843 -0.67485819 537.69668843 5.30829716 549.04715157 C6.85419408 550.3858454 8.41785433 551.70434822 10 553 C11.43021581 554.65846003 12.83013507 556.3439054 14.1875 558.0625 C14.92613281 558.97386719 15.66476562 559.88523438 16.42578125 560.82421875 C17.030271 561.57131104 17.030271 561.57131104 17.64697266 562.33349609 C20.37455965 565.69302493 23.12535394 569.03352183 25.875 572.375 C26.47046631 573.09905029 27.06593262 573.82310059 27.67944336 574.5690918 C31.94609244 579.74691766 36.25726986 584.88472183 40.62451172 589.97802734 C58.19541128 610.55759617 46 613.66835504 46 660 C-15.38 660 -76.76 660 -140 660 C-140 600 -140 600 -128 584 C-125.86311722 581.06948559 -123.73389837 578.13761693 -121.625 575.1875 C-102.3773454 548.40221933 -102.3773454 548.40221933 -99.43533295 545.40707612 C-97.35032681 541.91048776 -97.58438335 538.52904687 -97.61523914 534.57418442 C-97.60751428 533.2807206 -97.60751428 533.2807206 -97.59963337 531.96112621 C-97.58594294 529.05172012 -97.59371925 526.14276039 -97.60127258 523.2333374 C-97.59583701 521.1344829 -97.58908708 519.03563145 -97.58113068 516.93678498 C-97.56303483 511.15378748 -97.56367106 505.37091791 -97.56726015 499.58789873 C-97.56788204 493.35748735 -97.55128229 487.12711963 -97.53674316 480.89672852 C-97.51391271 470.09699425 -97.50196025 459.29730507 -97.49761391 448.49755096 C-97.49300935 437.16902837 -97.48223265 425.84053944 -97.46318626 414.51203156 C-97.46200614 413.80804235 -97.46082601 413.10405314 -97.45961012 412.37873093 C-97.45358482 408.8036238 -97.447449 405.22851686 -97.44127061 401.65340999 C-97.39769149 376.32135775 -97.36799105 350.98930631 -97.34643555 325.65722656 C-97.32546107 301.0452351 -97.29821063 276.43326368 -97.26245117 251.82128906 C-97.26135169 251.06283476 -97.26025222 250.30438047 -97.25911942 249.5229427 C-97.24807123 241.90633385 -97.23689531 234.28972519 -97.2256258 226.67311666 C-97.20267078 211.15677364 -97.18056834 195.64042945 -97.15898132 180.12408447 C-97.15749089 179.05392565 -97.15749089 179.05392565 -97.15597036 177.96214746 C-97.08969951 130.30811447 -97.0433661 82.65405877 -97 35 C-95.72951078 34.35714913 -94.45813496 33.71605029 -93.18639088 33.0756855 C-92.47848968 32.71848462 -91.77058849 32.36128374 -91.04123574 31.9932586 C-88.47962014 30.74678487 -85.87685291 29.73849203 -83.19604492 28.77685547 C-82.12259323 28.38899872 -81.04914154 28.00114197 -79.94316101 27.60153198 C-78.80047256 27.1941983 -77.65778412 26.78686462 -76.48046875 26.3671875 C-74.62596885 25.69893298 -72.77146933 25.03067738 -70.91698933 24.36236763 C-68.32503035 23.42970362 -65.73144879 22.50159696 -63.13787842 21.57342529 C-58.06616266 19.75725745 -52.99768504 17.9320628 -47.92886734 16.10782623 C-46.04622904 15.43085985 -44.16299211 14.75555901 -42.27975464 14.08026123 C-35.91409232 11.79266029 -29.56335847 9.47380564 -23.23291016 7.09082031 C-22.60779321 6.85619898 -21.98267626 6.62157764 -21.33861637 6.37984657 C-18.36125759 5.2621251 -15.38662787 4.13808384 -12.4160614 3.00241089 C-11.36650772 2.6073233 -10.31695404 2.21223572 -9.2355957 1.80517578 C-8.3175264 1.45544708 -7.39945709 1.10571838 -6.4535675 0.74539185 C-4 0 -4 0 0 0 Z " fill="#EBA51C" transform="translate(5675,4187)"/>
<path d="M0 0 C0.93061752 -0.01839935 1.86123505 -0.03679871 2.8200531 -0.05575562 C5.89971392 -0.10838585 8.97802868 -0.12298834 12.05810547 -0.1328125 C14.20320146 -0.15142276 16.34829228 -0.17063719 18.49337769 -0.19042969 C22.99423672 -0.22490055 27.49462125 -0.23814082 31.99560547 -0.23925781 C37.74675805 -0.2443275 43.49431145 -0.32282762 49.24453926 -0.4203186 C53.67838233 -0.48363133 58.11136717 -0.49673723 62.54561996 -0.49615479 C64.66430645 -0.50387327 66.78300962 -0.52946268 68.90124893 -0.57366943 C86.30584578 -0.90517283 86.30584578 -0.90517283 91.23724365 3.09521484 C93.77970952 5.855212 95.78512479 8.58485621 97.80029297 11.7421875 C99.19788453 13.46616112 100.61217453 15.17687316 102.05029297 16.8671875 C103.18855525 18.27493238 104.32672535 19.68275274 105.46337891 21.09179688 C108.18249093 24.44848009 110.93009634 27.78183275 113.67529297 31.1171875 C114.56861328 32.20338379 114.56861328 32.20338379 115.47998047 33.31152344 C119.74649585 38.48931085 124.05763777 43.62699673 128.42480469 48.72021484 C145.99570425 69.29978367 133.80029297 72.41054254 133.80029297 118.7421875 C72.42029297 118.7421875 11.04029297 118.7421875 -52.19970703 118.7421875 C-52.19970703 58.7421875 -52.19970703 58.7421875 -40.19970703 42.7421875 C-38.06282399 39.81167273 -35.93367436 36.87975503 -33.82470703 33.9296875 C-29.1323817 27.40233425 -24.40291317 20.90367755 -19.63720703 14.4296875 C-18.76153076 13.2379895 -18.76153076 13.2379895 -17.86816406 12.0222168 C-17.04034424 10.89940308 -17.04034424 10.89940308 -16.19580078 9.75390625 C-15.47154907 8.77103638 -15.47154907 8.77103638 -14.73266602 7.76831055 C-14.22678955 7.09968994 -13.72091309 6.43106934 -13.19970703 5.7421875 C-12.44689705 4.46496574 -12.44689705 4.46496574 -11.67887878 3.16194153 C-8.03613966 -0.39349292 -4.92085832 -0.00389932 0 0 Z " fill="#0A0606" transform="translate(5587.19970703125,4728.2578125)"/>
<path d="M0 0 C5.53846154 3.07692308 5.53846154 3.07692308 7 6 C8.13429825 14.04008448 8.38207668 22.12291555 8.70849609 30.22851562 C8.77246962 31.75983801 8.83672211 33.29114876 8.90122986 34.82244873 C9.03943645 38.11734392 9.17568619 41.41231209 9.31040573 44.70735168 C9.52656542 49.99363363 9.74722856 55.27972221 9.96841431 60.5657959 C10.32133481 69.0125871 10.67133474 77.45949637 11.02007163 85.90646124 C11.70845934 102.57967593 12.40155762 119.25269475 13.09707618 135.9256134 C13.21103951 138.65869641 13.32482497 141.39178678 13.43859291 144.12487793 C14.55935062 171.03007679 15.74578911 197.93153849 17.02438354 224.82971191 C17.80063078 241.21667861 18.46845053 257.60544074 19.0625 274 C19.14634298 276.30072749 19.23024526 278.60145282 19.31420898 280.9021759 C19.35109329 281.91513135 19.3879776 282.9280868 19.42597961 283.97173786 C19.86421937 295.92347554 20.39646251 307.8680415 21 319.8125 C22.59321748 351.38498611 23.82257507 382.97209719 25 414.5625 C26.13128847 444.91063881 27.34406697 475.25452506 28.875 505.58538818 C28.91625 506.40283508 28.9575 507.22028198 29 508.0625 C29.04125 508.87962463 29.0825 509.69674927 29.125 510.53863525 C29.87829541 525.56297977 30.45774401 540.59169397 31 555.625 C31.62179812 572.85621611 32.2653941 590.08567848 33 607.3125 C33.04158234 608.28856201 33.08316467 609.26462402 33.12600708 610.27026367 C33.54094816 619.95911275 33.97191813 629.64681108 34.46484375 639.33203125 C34.5034552 640.09093658 34.54206665 640.84984192 34.58184814 641.63174438 C34.62074158 642.39554413 34.65963501 643.15934387 34.69970703 643.94628906 C35.79353802 665.43936503 36.67316196 686.9399553 37.52132034 708.44390106 C37.62406924 711.03899219 37.72799421 713.63403375 37.83224487 716.22906494 C37.99872841 720.37898598 38.16175147 724.52903015 38.32227516 728.67918587 C38.38223676 730.2182626 38.44319653 731.75730087 38.50528526 733.29629326 C38.67447478 737.50399405 38.82545855 741.71147059 38.94202423 745.92097855 C38.98185329 747.3492559 39.02559983 748.77742773 39.07262421 750.2054863 C39.13978594 752.38622809 39.18484987 754.56639938 39.22412109 756.74780273 C39.26839737 758.6586692 39.26839737 758.6586692 39.31356812 760.60813904 C38.97538233 764.26628887 38.18351093 766.08644534 36 769 C32.57080428 771.57189679 29.16060514 771.502142 25 771 C22.02760759 769.21523759 19.57395973 767.14791945 18 764 C17.83367585 762.34219801 17.72435207 760.67853291 17.64282227 759.0144043 C17.58921036 757.962202 17.53559845 756.90999969 17.48036194 755.82591248 C17.42625656 754.67035355 17.37215118 753.51479462 17.31640625 752.32421875 C17.25670151 751.11818497 17.19699677 749.91215118 17.13548279 748.66957092 C16.97345976 745.36694138 16.81576733 742.0641637 16.66046143 738.76121521 C16.56217153 736.68054664 16.46215356 734.59996816 16.36157227 732.51940918 C15.41237108 712.8683191 14.58954205 693.21458464 13.88552856 673.55307007 C13.21532066 654.86234453 12.38336541 636.18155893 11.5 617.5 C10.55326274 597.46146747 9.67087195 577.42273086 8.9375 557.375 C8.89769012 556.28749451 8.85788025 555.19998901 8.81686401 554.07952881 C8.77731598 552.99867004 8.73776794 551.91781128 8.69702148 550.80419922 C8.61837714 548.65592264 8.53968303 546.50764788 8.4609375 544.359375 C8.42261307 543.31359283 8.38428864 542.26781067 8.34480286 541.19033813 C7.95611769 530.66688148 7.51616377 520.14583144 7.0625 509.625 C7.02243835 508.6953241 6.98237671 507.76564819 6.94110107 506.80780029 C6.77105898 502.8653334 6.60076265 498.92287763 6.43008423 494.98043823 C5.86155481 481.83289497 5.3084475 468.68469782 4.75387573 455.53656006 C4.56141649 450.97374823 4.36874617 446.41094532 4.17602539 441.84814453 C4.11103818 440.30949911 4.046051 438.77085368 3.98106384 437.23220825 C3.94878126 436.46788609 3.91649868 435.70356392 3.88323784 434.91608047 C3.7520035 431.80877457 3.62080066 428.70146733 3.48959827 425.59416008 C3.07526924 415.7815161 2.66073497 405.9688808 2.24609375 396.15625 C2.19986217 395.06216072 2.19986217 395.06216072 2.15269661 393.94596863 C1.99729807 390.26842233 1.84189624 386.59087617 1.68649292 382.91333008 C1.40558084 376.26564105 1.12469812 369.61795078 0.84381294 362.97026062 C0.68754314 359.27184036 0.53127148 355.57342019 0.375 351.875 C0.31249999 350.39583333 0.24999999 348.91666667 0.1875 347.4375 C0.1565625 346.7053125 0.125625 345.973125 0.09375 345.21875 C-6.1875 196.56250004 -6.1875 196.56250004 -6.28125095 194.34372234 C-6.3437472 192.86464784 -6.40624402 191.38557336 -6.46874142 189.90649891 C-6.6250535 186.20717233 -6.78135562 182.50784532 -6.93763733 178.80851746 C-7.21813548 172.16910305 -7.49870072 165.52969153 -7.77964497 158.89029598 C-7.93517776 155.21462651 -8.09065127 151.53895454 -8.24609375 147.86328125 C-8.27690977 147.13461664 -8.30772579 146.40595203 -8.33947563 145.65520668 C-8.79143621 134.96544516 -9.23993251 124.27554191 -9.68668938 113.58556175 C-9.94614235 107.38006486 -10.20633526 101.17459899 -10.46676254 94.96914291 C-10.53037915 93.45301333 -10.59396022 91.93688226 -10.65750504 90.42074966 C-11.5131477 70.00899358 -12.4001269 49.59933435 -13.44165039 29.19604492 C-13.6474524 25.13134178 -13.83254881 21.06647502 -14 17 C-14.04382812 15.96190186 -14.08765625 14.92380371 -14.1328125 13.85424805 C-14.15472656 12.96133057 -14.17664062 12.06841309 -14.19921875 11.1484375 C-14.21944092 10.4167334 -14.23966309 9.6850293 -14.26049805 8.93115234 C-13.7657767 5.26363046 -11.64653808 3.45749964 -9 1 C-5.89046621 -0.5547669 -3.43733239 -0.28644437 0 0 Z " fill="#FEFEFC" transform="translate(5692,4877)"/>
<path d="M0 0 C5.27446946 0.00755092 10.54886378 0.00479934 15.82333052 -0.00360405 C73.10474966 -0.09242547 130.32406771 1.09740391 187.52523482 4.35479438 C189.37423384 4.45909515 189.37423384 4.45909515 191.26058638 4.565503 C258.01041981 8.38345285 324.56884901 14.05716834 390.96273482 21.94463813 C391.75313658 22.03846275 392.54353835 22.13228736 393.35789168 22.22895515 C413.96732304 24.67949245 434.53873873 27.34031709 455.08773482 30.25713813 C455.08773482 30.58713813 455.08773482 30.91713813 455.08773482 31.25713813 C446.08398852 31.38969352 437.15513966 31.05204325 428.17416823 30.45290458 C425.85049647 30.29809705 423.52652728 30.14869428 421.20241988 30.00057685 C417.81715819 29.78470348 414.43199987 29.56730531 411.0469023 29.34887397 C348.31395488 25.3156145 285.5430724 22.53312045 222.71273482 20.56963813 C221.24383425 20.52351512 221.24383425 20.52351512 219.74525893 20.47646034 C218.7843862 20.44636123 217.82351347 20.41626213 216.83352339 20.38525093 C215.99989649 20.35913105 215.16626959 20.33301116 214.30738127 20.30609977 C169.50953699 18.93137167 124.73140481 18.09510894 79.91171348 18.08988106 C76.37112927 18.08915295 72.83054858 18.08698692 69.28996527 18.08438385 C56.76104558 18.07521325 44.23213627 18.07103733 31.70321333 18.0718354 C21.56745489 18.07236474 11.43173533 18.06537369 1.29598677 18.05132759 C-61.13527681 17.96679333 -123.50804082 18.32943742 -185.91226518 20.25713813 C-186.76934037 20.28358122 -187.62641555 20.31002431 -188.50946271 20.33726871 C-217.9057024 21.2462469 -217.9057024 21.2462469 -247.29507768 22.35088813 C-248.13169057 22.38473106 -248.96830347 22.41857399 -249.83026826 22.45344245 C-321.97985643 25.3811585 -394.14730179 29.25555545 -466.12715471 35.06347358 C-477.96774659 35.88681719 -477.96774659 35.88681719 -481.91226518 33.25713813 C-465.64177394 30.50611364 -449.292657 28.47780888 -432.91226518 26.50713813 C-431.84636974 26.37852771 -431.84636974 26.37852771 -430.75894105 26.2473191 C-356.24106669 17.25700948 -281.53943847 10.16448847 -194.91226518 5.25713813 C-193.63836931 5.18666267 -192.36447343 5.11618721 -191.05197465 5.04357612 C-161.19528375 3.40084014 -131.32816852 2.08776255 -101.43960893 1.18682563 C-100.72624871 1.16523289 -100.0128885 1.14364015 -99.27791131 1.12139308 C-66.18467935 0.12692139 -33.1060792 -0.05287083 0 0 Z " fill="#0A0606" transform="translate(3921.9122651815414,4603.742861866951)"/>
</svg>
